<?xml version="1.0" encoding="UTF-8" standalone="no"?>
<!-- Created with Inkscape (http://www.inkscape.org/) -->

<svg
   xmlns:dc="http://purl.org/dc/elements/1.1/"
   xmlns:cc="http://creativecommons.org/ns#"
   xmlns:rdf="http://www.w3.org/1999/02/22-rdf-syntax-ns#"
   xmlns:svg="http://www.w3.org/2000/svg"
   xmlns="http://www.w3.org/2000/svg"
   xmlns:sodipodi="http://sodipodi.sourceforge.net/DTD/sodipodi-0.dtd"
   xmlns:inkscape="http://www.inkscape.org/namespaces/inkscape"
   width="210mm"
   height="297mm"
   id="svg2"
   version="1.1"
   inkscape:version="0.48.0 r9654"
   sodipodi:docname="anatomie_lanceur.svg"
   inkscape:export-filename="/home/jc/Documents/qf-astro/Ressources/Illustrations/anatomie_lanceur.png"
   inkscape:export-xdpi="100"
   inkscape:export-ydpi="100">
  <defs
     id="defs4" />
  <sodipodi:namedview
     id="base"
     pagecolor="#ffffff"
     bordercolor="#666666"
     borderopacity="1.0"
     inkscape:pageopacity="0.0"
     inkscape:pageshadow="2"
     inkscape:zoom="0.82101012"
     inkscape:cx="372.04724"
     inkscape:cy="526.18109"
     inkscape:document-units="px"
     inkscape:current-layer="layer1"
     showgrid="false"
     inkscape:window-width="1920"
     inkscape:window-height="1002"
     inkscape:window-x="0"
     inkscape:window-y="25"
     inkscape:window-maximized="1"
     showguides="true"
     inkscape:guide-bbox="true" />
  <metadata
     id="metadata7">
    <rdf:RDF>
      <cc:Work
         rdf:about="">
        <dc:format>image/svg+xml</dc:format>
        <dc:type
           rdf:resource="http://purl.org/dc/dcmitype/StillImage" />
        <dc:title></dc:title>
      </cc:Work>
    </rdf:RDF>
  </metadata>
  <g
     inkscape:label="Calque 1"
     inkscape:groupmode="layer"
     id="layer1">
    <path
       style="fill:none;stroke:#000000;stroke-width:10.99999981000000027;stroke-linecap:round;stroke-linejoin:round;stroke-opacity:1;stroke-miterlimit:4;stroke-dasharray:none"
       d="m 348.11515,889.50504 0,-393.75092 -32.51603,-23.39194 c 0,0 0,-157.14285 0,-170 0,-12.85714 23.42857,-24.28571 23.42857,-24.28571 0,0 0,-54.28572 0,-72.85714 0,-18.57143 -8.57142,-32.85715 -47.14285,-72.85715 l -1.0277,0 c -38.57143,40 -47.14285,54.28572 -47.14285,72.85715 0,18.57142 0,72.85714 0,72.85714 0,0 21.42857,11.42857 21.42857,24.28571 0,12.85715 0,170 0,170 l -30.51603,23.39194 0,393.75092 36.28568,0 -20.28379,75.70013 81.39801,0 -20.17198,-75.28287 z"
       id="path2985-0"
       inkscape:connector-curvature="0"
       sodipodi:nodetypes="cccscsccscscccccccc" />
    <path
       style="fill:none;stroke:#000000;stroke-width:10.99999981000000027;stroke-linecap:round;stroke-linejoin:round;stroke-opacity:1;stroke-miterlimit:4;stroke-dasharray:none"
       d="m 220,506.6479 0,382.85714 -51.42857,0 0,-327.14286 47.85714,-47.85714 z"
       id="path3009"
       inkscape:connector-curvature="0" />
    <path
       style="fill:none;stroke:#000000;stroke-width:10.99999981000000027;stroke-linecap:round;stroke-linejoin:round;stroke-opacity:1;stroke-miterlimit:4;stroke-dasharray:none"
       d="m 362.85714,503.79076 0,382.85714 51.42857,0 0,-327.14286 -47.85714,-47.85714 z"
       id="path3009-4"
       inkscape:connector-curvature="0" />
    <path
       style="fill:none;stroke:#000000;stroke-width:10.99999981000000027;stroke-linecap:round;stroke-linejoin:round;stroke-opacity:1;stroke-miterlimit:4;stroke-dasharray:none"
       d="m 211.8795,889.47508 0.25253,53.79063 -44.44671,0 14.30257,-53.3779"
       id="path3031"
       inkscape:connector-curvature="0" />
    <path
       style="fill:none;stroke:#000000;stroke-width:10.99999981000000027;stroke-linecap:round;stroke-linejoin:round;stroke-opacity:1;stroke-miterlimit:4;stroke-dasharray:none"
       d="m 373.25136,887.58104 -0.25253,53.79063 44.44671,0 -14.30257,-53.3779"
       id="path3031-5"
       inkscape:connector-curvature="0" />
    <path
       style="fill:#ffffff;stroke:#000000;stroke-width:6;stroke-linecap:round;stroke-linejoin:round;stroke-miterlimit:4;stroke-opacity:1;stroke-dasharray:none;fill-opacity:1"
       d="m 565.10051,515.85036 42.05266,0 -1.23683,-30.9211 113.78964,29.68423 0,-101.42111 c 0,0 -96.47383,-92.76329 -102.65805,-106.36855 -6.18422,-13.60528 -22.2632,-181.81597 -21.02634,-186.76335 1.23684,-4.94737 -21.02635,-14.84212 -40.81583,-16.07896 18.76384,-1.08809 -44.98712,1.88484 -43.90794,16.69739 1.23684,4.94737 -14.84212,173.15806 -21.02634,186.76334 -6.18422,13.60528 -102.65799,106.36852 -102.65799,106.36852 l 0,101.42116 113.78958,-29.68424 -1.23684,30.92108 42.05267,0 z"
       id="path3838-0"
       inkscape:connector-curvature="0"
       sodipodi:nodetypes="cccccssccscccccc"
       inkscape:export-filename="/home/jc/Documents/qf-astro/Ressources/Illustrations/navette.png"
       inkscape:export-xdpi="100"
       inkscape:export-ydpi="100" />
  </g>
</svg>
