<?xml version="1.0" encoding="UTF-8" standalone="no"?>
<!-- Created with Inkscape (http://www.inkscape.org/) -->

<svg
   xmlns:dc="http://purl.org/dc/elements/1.1/"
   xmlns:cc="http://creativecommons.org/ns#"
   xmlns:rdf="http://www.w3.org/1999/02/22-rdf-syntax-ns#"
   xmlns:svg="http://www.w3.org/2000/svg"
   xmlns="http://www.w3.org/2000/svg"
   xmlns:sodipodi="http://sodipodi.sourceforge.net/DTD/sodipodi-0.dtd"
   xmlns:inkscape="http://www.inkscape.org/namespaces/inkscape"
   id="svg2"
   version="1.1"
   inkscape:version="0.47 r22583"
   width="733"
   height="600"
   sodipodi:docname="casque.JPG">
  <metadata
     id="metadata8">
    <rdf:RDF>
      <cc:Work
         rdf:about="">
        <dc:format>image/svg+xml</dc:format>
        <dc:type
           rdf:resource="http://purl.org/dc/dcmitype/StillImage" />
        <dc:title></dc:title>
      </cc:Work>
    </rdf:RDF>
  </metadata>
  <defs
     id="defs6">
    <inkscape:perspective
       sodipodi:type="inkscape:persp3d"
       inkscape:vp_x="0 : 0.5 : 1"
       inkscape:vp_y="0 : 1000 : 0"
       inkscape:vp_z="1 : 0.5 : 1"
       inkscape:persp3d-origin="0.5 : 0.33333333 : 1"
       id="perspective10" />
  </defs>
  <sodipodi:namedview
     pagecolor="#ffffff"
     bordercolor="#666666"
     borderopacity="1"
     objecttolerance="10"
     gridtolerance="10"
     guidetolerance="10"
     inkscape:pageopacity="0"
     inkscape:pageshadow="2"
     inkscape:window-width="1920"
     inkscape:window-height="1006"
     id="namedview4"
     showgrid="false"
     inkscape:zoom="0.39333333"
     inkscape:cx="31.365214"
     inkscape:cy="50.102703"
     inkscape:window-x="0"
     inkscape:window-y="25"
     inkscape:window-maximized="1"
     inkscape:current-layer="svg2" />
  <path
     style="fill:#f9f9f9"
     d="m 353.33051,559.93923 c -19.61427,-2.22685 -37.94467,-7.62067 -51.15798,-15.0535 -8.87965,-4.99503 -24.53658,-19.89467 -28.48012,-27.10259 -3.51524,-6.42508 -11.1212,-10.06353 -19.62439,-9.38769 -3.44438,0.27376 -9.06938,1.40198 -12.5,2.50716 -14.83733,4.77985 -40.27487,9.84277 -51.4572,10.2417 -6.19339,0.22095 -7.61492,-0.0587 -10,-1.96733 -1.52917,-1.22368 -6.15531,-3.9425 -10.28031,-6.04181 -17.77229,-9.04473 -34.15719,-18.19714 -43,-24.01928 -9.02323,-5.94093 -26.834021,-20.68656 -29.428911,-24.36432 -0.66534,-0.94299 -3.75359,-4.42404 -6.86277,-7.73566 -3.10917,-3.31162 -6.62048,-7.94008 -7.8029,-10.28547 -1.18242,-2.34538 -4.28251,-7.18933 -6.8891,-10.76433 -11.09376,-15.21538 -22.40239,-35.28009 -33.39947,-59.26012 -7.4703,-16.28962 -11.47508,-33.46335 -12.29851,-52.73988 -0.92403,-21.63132 1.67462,-39.63024 8.5183,-59 5.73745,-16.23877 6.67159,-18.50726 8.16336,-19.82416 1.33333,-1.17703 1.33333,-1.25212 0,-0.67584 -0.86112,0.37219 -0.71199,0.006 0.35014,-0.85931 1.01757,-0.82919 1.54662,-1.99871 1.17567,-2.59893 -0.37096,-0.60022 -0.13477,-0.96766 0.52486,-0.81654 0.65963,0.15113 1.42646,-0.35036 1.70406,-1.11442 0.34125,-0.93922 0.0835,-1.12884 -0.79585,-0.58539 -0.71532,0.44209 -0.4362,-0.38113 0.62027,-1.82938 1.05647,-1.44825 2.28491,-2.64732 2.72987,-2.66461 0.44496,-0.0173 0.48793,-0.55095 0.0955,-1.18593 -0.40978,-0.66304 -0.27738,-0.88495 0.31103,-0.5213 0.5635,0.34827 2.94611,-2.10615 5.29468,-5.45426 2.34856,-3.34811 8.33625,-10.34072 13.30596,-15.53913 16.42098,-17.17665 33.132161,-29.137 56.544261,-40.46929 8.05176,-3.89733 15.43059,-7.49155 16.3974,-7.98715 0.96681,-0.4956 5.24181,-2.21048 9.5,-3.81084 4.25819,-1.60036 11.34216,-4.33319 15.74216,-6.07296 15.58706,-6.16316 21.13478,-8.2058 33,-12.15043 17.77772,-5.91027 28.57925,-8.90919 29.66725,-8.23676 0.5312,0.3283 1.49838,-0.11808 2.14928,-0.99196 0.65091,-0.87387 5.90847,-2.94735 11.68347,-4.60772 5.775,-1.66038 12.525,-3.65352 15,-4.42921 4.2715,-1.33874 11.41315,-3.01496 26,-6.10249 12.21988,-2.58653 16.50234,-3.38124 21.4723,-3.98471 2.73476,-0.33206 7.23476,-1.12852 10,-1.76991 2.76523,-0.64139 12.4527,-1.16943 21.5277,-1.17342 14.3471,-0.006 17.54383,0.2972 24.5,2.32613 4.4,1.28336 9.575,3.13264 11.5,4.1095 1.925,0.97686 6.27577,2.90655 9.66837,4.28819 l 6.16837,2.51207 2.45856,-2.63992 c 1.3522,-1.45196 3.4301,-5.50091 4.61754,-8.99768 4.09481,-12.058355 15.44397,-25.792635 28.16445,-34.083475 11.5011,-7.49607 26.04963,-14.03857 34.92271,-15.704797 15.02394,-2.821263 33.22383,-0.763307 49.80734,5.631972 9.00077,3.471065 11.04555,5.498345 11.88908,11.787355 l 0.51633,3.84951 12.099,4.7954 c 28.66507,11.36131 53.18537,31.329135 71.01697,57.831715 13.5524,20.14255 20.0694,38.07684 21.6634,59.61526 0.9289,12.55237 1.6374,18.80332 2.5653,22.63482 0.2664,1.1 4.6375,5.23602 9.7135,9.19115 5.076,3.95513 10.7838,8.45513 12.684,10 6.2712,5.09838 36.2711,32.89502 52.3551,48.50994 l 15.8101,15.34895 -0.3101,5.4533 -0.31,5.45329 -19,-19.02453 c -35.2928,-35.33832 -67.228,-62.95433 -70.4779,-60.9458 -0.5622,0.34745 -1.0221,3.02984 -1.0221,5.96085 0,6.09896 -3.7021,19.75698 -7.569,27.92396 -4.6128,9.74244 -20.5543,26.34304 -30.3119,31.56511 -4.4198,2.36544 -10.1191,8.27659 -10.1191,10.49531 0,1.20934 2.2439,6.66947 4.9864,12.13363 6.503,12.95627 10.5746,25.65372 12.0041,37.43484 0.634,5.225 1.676,12.65 2.3156,16.5 0.6395,3.85 1.1698,15.19217 1.1783,25.20482 l 0.015,18.20481 3.5,0.50875 c 1.925,0.27981 7.775,0.78837 13,1.13014 12.372,0.80926 16.4343,1.74637 25.2253,5.81919 9.5677,4.43262 14.5066,5.98368 31.2747,9.8218 12.4718,2.8547 15.7194,3.21029 29.7502,3.2575 l 15.7501,0.053 -10e-5,3.63485 -2e-4,3.63484 -6.25,-0.39272 c -3.4375,-0.216 -13.2927,-0.83125 -21.9006,-1.36723 -20.3414,-1.26657 -36.7708,-4.73011 -50.6823,-10.6845 -10.4988,-4.49369 -10.9037,-4.5792 -25.6671,-5.42067 -8.25,-0.47023 -15.675,-0.63235 -16.5,-0.36026 -0.825,0.27209 -3.1852,4.05915 -5.245,8.41569 -2.0598,4.35654 -5.9973,10.8966 -8.75,14.53345 -2.7527,3.63686 -5.005,7.39756 -5.005,8.35711 0,0.95956 -1.5339,4.73995 -3.4087,8.40088 -13.39659,26.15975 -35.98475,43.045 -74.59125,55.759 -14.65387,4.82585 -30.20771,9.17167 -35.5625,9.93634 -5.6532,0.80728 -11.35665,2.72816 -12.43867,4.18926 -1.62987,2.20091 -32.67377,9.55106 -52.49883,12.42996 -12.60562,1.83053 -40.49332,2.59997 -51,1.40712 z m 104.19723,-16.60922 c -0.2527,-0.25271 -9.85046,-0.6147 -21.32835,-0.80444 -11.47788,-0.18973 -22.89388,-0.62117 -25.36888,-0.95874 -2.475,-0.33757 -4.03978,-0.38243 -3.47729,-0.0997 2.75726,1.38601 14.77763,2.24917 31.80564,2.2839 10.35559,0.0211 18.62159,-0.16835 18.36888,-0.42105 z m -34.96806,-3.96807 c -0.33229,-0.33229 -1.1948,-0.36781 -1.91667,-0.0789 -0.79773,0.31922 -0.56078,0.55618 0.60417,0.60416 1.05416,0.0434 1.64479,-0.19293 1.3125,-0.52522 z m -30.4537,-3.11939 c -5.62349,-1.40242 -9.98762,-2.93318 -9.69806,-3.40169 0.28956,-0.46851 -0.0888,-0.61575 -0.84076,-0.32719 -0.75197,0.28856 -2.46284,0.0481 -3.80193,-0.53445 -2.27648,-0.99028 -2.23987,-1.01984 0.56323,-0.45483 1.64887,0.33236 2.63553,0.24186 2.19256,-0.2011 -0.44296,-0.44296 -2.46704,-0.84466 -4.49795,-0.89267 -2.03091,-0.048 -4.81756,-0.42663 -6.19256,-0.8414 -1.87202,-0.56469 -2.12321,-0.4933 -1,0.28423 1.85647,1.28511 19.51649,6.9033 25.26661,8.03808 8.96498,1.76922 7.76613,0.76434 -1.99114,-1.66898 z m 22.48619,2.03648 c -0.95609,-0.25029 -2.75609,-0.25937 -4,-0.0202 -1.24391,0.23919 -0.46166,0.44398 1.73834,0.45508 2.2,0.0111 3.21775,-0.18461 2.26166,-0.4349 z m 46.96751,0.0829 c -0.33229,-0.33229 -1.1948,-0.36781 -1.91667,-0.0789 -0.79773,0.31922 -0.56078,0.55618 0.60417,0.60416 1.05416,0.0434 1.64479,-0.19293 1.3125,-0.52522 z m -59,-2 c -0.33229,-0.33229 -1.1948,-0.36781 -1.91667,-0.0789 -0.79773,0.31922 -0.56078,0.55618 0.60417,0.60416 1.05416,0.0434 1.64479,-0.19293 1.3125,-0.52522 z m -6,-1 c -0.33229,-0.33229 -1.1948,-0.36781 -1.91667,-0.0789 -0.79773,0.31922 -0.56078,0.55618 0.60417,0.60416 1.05416,0.0434 1.64479,-0.19293 1.3125,-0.52522 z m -6.27917,-1.28343 c -0.5225,-0.48818 -2.075,-1.15872 -3.45,-1.49008 -2.09373,-0.50457 -2.01248,-0.36766 0.5,0.8425 3.53434,1.70235 4.24616,1.85861 2.95,0.64758 z m -26.45,-14.5054 c 0,-0.21616 -0.69837,-0.661 -1.55194,-0.98855 -0.88992,-0.34149 -1.29132,-0.17385 -0.94098,0.39301 0.58726,0.95021 2.49292,1.40545 2.49292,0.59554 z m 167.12756,-2.35699 c 1.24387,-1.58606 1.2085,-1.62143 -0.37756,-0.37756 -0.9625,0.75485 -1.75,1.54235 -1.75,1.75 0,0.82304 0.82119,0.29331 2.12756,-1.37244 z m -3,-1 c 1.26951,-1.61876 1.22245,-1.63998 -0.62756,-0.28297 -1.1,0.80687 -2.1875,1.59437 -2.41667,1.75 -0.22916,0.15563 0.0532,0.28297 0.62756,0.28297 0.57432,0 1.66182,-0.7875 2.41667,-1.75 z m 7,-2 c 1.24387,-1.58606 1.2085,-1.62143 -0.37756,-0.37756 -0.9625,0.75485 -1.75,1.54235 -1.75,1.75 0,0.82304 0.82119,0.29331 2.12756,-1.37244 z m 1.43535,-4.5 2.93709,-3.25 -3.25,2.93709 c -1.7875,1.6154 -3.25,3.0779 -3.25,3.25 0,0.77256 0.82513,0.0924 3.56291,-2.93709 z m 4.43709,-0.25 c 1.29175,-1.375 2.12363,-2.5 1.84863,-2.5 -0.275,0 -1.55688,1.125 -2.84863,2.5 -1.29175,1.375 -2.12363,2.5 -1.84863,2.5 0.275,0 1.55688,-1.125 2.84863,-2.5 z m -222.5,-2.05079 c -3.70236,-2.75305 -4.97701,-4.07284 -11.5,-11.90728 -3.575,-4.29376 -7.5507,-8.98473 -8.8349,-10.42438 -2.1242,-2.38135 -2.19617,-2.40057 -0.79756,-0.21294 1.04647,1.63682 1.24446,2.95185 0.62008,4.11851 -0.50449,0.94265 -0.6093,2.02187 -0.23292,2.39825 0.37639,0.37638 -0.20195,0.40004 -1.28518,0.0526 -2.38365,-0.7646 5.33844,6.59475 11.03048,10.51232 6.70309,4.61344 16.20112,9.33045 11,5.46294 z m 105.77568,-1.50302 c -0.24745,-0.94626 0.0393,-2.02282 0.6372,-2.39235 0.59792,-0.36953 1.0586,-1.43282 1.02373,-2.36286 -0.0459,-1.22518 -0.31251,-1.07119 -0.96777,0.55902 -0.81033,2.01599 -1.66178,2.27037 -8.18662,2.44586 l -7.28222,0.19586 6.83868,0.35185 c 5.05885,0.26028 6.71028,0.68645 6.34534,1.63747 -0.27134,0.7071 0.077,1.28563 0.77412,1.28563 0.70648,0 1.06832,-0.76148 0.81754,-1.72048 z m 119.72432,-3.45722 3.5,-3.98897 -3.75,3.44617 c -2.0625,1.89539 -3.75,3.88289 -3.75,4.41666 0,0.53378 0.1125,0.77804 0.25,0.54281 0.1375,-0.23524 1.825,-2.22274 3.75,-4.41667 z m -134.46058,-2.23897 c -0.0362,-2.52201 0.30839,-2.77527 4.15576,-3.05482 3.17387,-0.23061 4.69543,0.19543 6.25,1.75 1.13015,1.13015 2.61732,2.04481 3.30482,2.03258 0.6875,-0.0122 0.17032,-0.85233 -1.14928,-1.8669 -1.80892,-1.39077 -2.05498,-1.98103 -1,-2.39882 0.7696,-0.30478 -1.62965,-0.58967 -5.33167,-0.63309 -6.33325,-0.0743 -6.76718,0.0654 -7.34414,2.36421 -0.50836,2.02546 0.005,4.55684 0.92353,4.55684 0.12672,0 0.21266,-1.2375 0.19098,-2.75 z m 6.71058,0.0877 c -0.6875,-0.27741 -1.8125,-0.27741 -2.5,0 -0.6875,0.27741 -0.125,0.50439 1.25,0.50439 1.375,0 1.9375,-0.22698 1.25,-0.50439 z m 20.48776,-2.0294 c -0.96924,-0.25283 -1.50836,-0.87047 -1.19807,-1.37255 0.3103,-0.50207 -0.17192,-0.63039 -1.0716,-0.28515 -1.30917,0.50238 -1.36946,0.79653 -0.30194,1.47323 0.73362,0.46504 2.00885,0.80021 2.83385,0.74484 1.05115,-0.0706 0.97268,-0.23824 -0.26224,-0.56037 z m -29.05464,-3.41206 c -0.48282,-1.8463 -0.19116,-2.05105 2.38337,-1.67319 1.61343,0.2368 2.93351,0.0585 2.93351,-0.39626 0,-0.45473 -1.35,-0.82679 -3,-0.82679 -2,0 -3,-0.5 -3,-1.5 0,-1.20298 1.53458,-1.50303 7.75,-1.51531 5.18838,-0.0102 7.26233,-0.3237 6.2746,-0.94832 -0.81147,-0.51316 -4.29759,-0.76877 -7.74694,-0.56802 -5.056,0.29424 -6.46007,0.0419 -7.2442,-1.30168 -0.53495,-0.91667 -0.98633,-1.17917 -1.00305,-0.58334 -0.0167,0.59584 0.28068,1.39443 0.66091,1.77465 0.38022,0.38023 0.76891,2.14273 0.86375,3.91667 0.26801,5.01295 0.4001,5.72535 1.06156,5.72535 0.33915,0 0.36907,-0.94668 0.0665,-2.10374 z m 24.81688,1.10376 c 0.33992,-0.55 0.14148,-1 -0.44098,-1 -0.58246,0 -1.05902,0.45 -1.05902,1 0,0.55 0.19844,1 0.44098,1 0.24254,0 0.7191,-0.45 1.05902,-1 z m -8.11844,-1.55194 c 0.34149,-0.88992 0.17385,-1.29132 -0.39301,-0.94098 -0.5437,0.33602 -0.98855,1.0344 -0.98855,1.55194 0,1.43843 0.71677,1.12146 1.38156,-0.61096 z m -208.07184,-1.09111 c 0.35368,-0.35368 4.81618,-0.7996 9.91667,-0.99093 5.10048,-0.19133 10.06111,-0.37992 11.02361,-0.4191 0.9625,-0.0392 1.75,-0.51981 1.75,-1.06809 0,-0.54827 0.3375,-0.80162 0.75,-0.56298 0.4125,0.23864 1.65,0.0324 2.75,-0.45827 1.24016,-0.55321 -0.8494,-0.63662 -5.5,-0.21956 -10.96743,0.98356 -26,1.25411 -26,0.46793 0,-0.37419 -0.9,-0.74814 -2,-0.831 -1.1,-0.0829 -2,0.40066 -2,1.07449 0,0.67383 1.4625,1.33515 3.25,1.46959 1.7875,0.13445 3.4,0.68017 3.58333,1.21271 0.38268,1.1116 1.53824,1.26335 2.47639,0.32521 z m 213.15595,-2.20709 c -0.56346,-0.59314 -2.46567,0.91014 -2.46567,1.94858 0,0.53923 0.62961,0.40017 1.39914,-0.30901 0.76953,-0.70919 1.24947,-1.44699 1.06653,-1.63957 z m -8.19664,1.1942 c -0.67703,-0.27392 -2.02703,-0.29059 -3,-0.0371 -0.97297,0.25354 -0.41903,0.47766 1.23097,0.49804 1.65,0.0204 2.44606,-0.18706 1.76903,-0.46099 z m -216.05911,-2.53414 c -0.4712,-0.4712 -1.88212,-1.05421 -3.13536,-1.29556 -1.25324,-0.24135 -2.83661,-0.90191 -3.5186,-1.46792 -0.68199,-0.566 -1.49753,-0.77153 -1.81232,-0.45674 -0.31479,0.31479 -1.62339,0.0248 -2.90799,-0.6444 l -2.33565,-1.21673 2.39536,2.60489 c 1.31745,1.4327 2.74885,2.38643 3.1809,2.11941 0.43205,-0.26702 1.02184,-0.10315 1.31065,0.36415 0.28881,0.46731 2.13491,0.84965 4.10243,0.84965 1.98611,0 3.19624,-0.38109 2.72058,-0.85675 z m 221.47319,-0.99742 c -0.31922,-0.79773 -0.55618,-0.56078 -0.60416,0.60417 -0.0434,1.05416 0.19293,1.64479 0.52522,1.3125 0.33229,-0.33229 0.36781,-1.1948 0.0789,-1.91667 z m 7.31689,-0.5625 c 0,-0.4125 -1.125,-0.75 -2.5,-0.75 -1.375,0 -2.5,0.3375 -2.5,0.75 0,0.4125 1.125,0.75 2.5,0.75 1.375,0 2.5,-0.3375 2.5,-0.75 z m -14.51424,-4.22696 c 0.40928,-0.66223 -1.94547,-1.01764 -6.67674,-1.00773 -4.2823,0.009 -6.76543,0.36004 -5.99633,0.84776 1.93207,1.22524 11.93665,1.35152 12.67307,0.15997 z m 1.85932,-3.56617 c -0.32569,-0.84872 -0.80663,-1.32866 -1.06875,-1.06653 -0.26213,0.26213 -0.17998,0.95654 0.18255,1.54313 0.98605,1.59546 1.56238,1.28551 0.8862,-0.4766 z m 7.65492,0.54313 c 0,-0.55 -0.19844,-1 -0.44098,-1 -0.24254,0 -0.7191,0.45 -1.05902,1 -0.33992,0.55 -0.14148,1 0.44098,1 0.58246,0 1.05902,-0.45 1.05902,-1 z m 6,0.60699 c 0,-0.94863 -2.99338,-1.42672 -3.52699,-0.56332 -0.32508,0.52598 0.33551,0.95633 1.46797,0.95633 1.13246,0 2.05902,-0.17686 2.05902,-0.39301 z m -19,-3.10699 c 0,-1.16575 -1.16989,-1.45983 -5.25,-1.31975 l -5.25,0.18025 5,0.50955 5,0.50954 -5,0.6531 -5,0.6531 5.25,0.15711 c 4.06982,0.12178 5.25,-0.18009 5.25,-1.3429 z m 17,-3.66667 c 0,-0.64166 -0.2961,-0.87057 -0.65799,-0.50867 -0.3619,0.36189 -1.2722,0.14824 -2.02289,-0.47478 -1.07871,-0.89525 -1.23283,-0.78858 -0.73502,0.50868 0.71736,1.86942 3.4159,2.24449 3.4159,0.47477 z m -21,-1.9049 c 0,-0.58936 -1.0125,-0.98955 -2.25,-0.8893 -4.72189,0.38248 -6.61878,-0.0982 -7.06067,-1.78913 -0.35695,-1.3659 -0.48279,-1.27445 -0.57333,0.41667 -0.0638,1.19166 0.4465,2.39364 1.134,2.67105 2.37294,0.9575 8.75,0.65921 8.75,-0.40929 z m 5.4349,0.0963 c 1.41081,-0.53639 2.52957,-1.54889 2.48615,-2.25 -0.0621,-1.00288 -0.18652,-1.00816 -0.58333,-0.0247 -0.27741,0.6875 -1.81689,1.25 -3.42105,1.25 -1.60417,0 -2.91667,0.45 -2.91667,1 0,1.25762 1.17496,1.26418 4.4349,0.0247 z m 13.5651,-4.02473 c 0,-0.55 -0.47656,-1 -1.05902,-1 -0.58246,0 -0.7809,0.45 -0.44098,1 0.33992,0.55 0.81648,1 1.05902,1 0.24254,0 0.44098,-0.45 0.44098,-1 z m -20,-0.38337 c 0,-0.88773 -4.04569,-1.35173 -4.55802,-0.52275 -0.30801,0.49837 0.59154,0.90612 1.999,0.90612 1.40746,0 2.55902,-0.17252 2.55902,-0.38337 z m 6.72917,-0.2208 c -0.33229,-0.33229 -1.1948,-0.36781 -1.91667,-0.0789 -0.79773,0.31922 -0.56078,0.55618 0.60417,0.60416 1.05416,0.0434 1.64479,-0.19293 1.3125,-0.52522 z m -184.16431,-2.41242 c 6.27737,-1.60548 8.66037,-2.77392 11.68917,-5.73147 4.49952,-4.39366 5.26238,-6.98173 6.6078,-22.4175 1.28982,-14.79787 6.17475,-30.11447 13.62598,-42.72407 4.9612,-8.39575 5.27168,-9.33351 5.94658,-17.96084 1.07604,-13.75511 4.04699,-26.61499 7.98603,-34.56785 3.43632,-6.93789 9.91355,-21.64243 12.58999,-28.58168 0.74247,-1.925 2.61886,-5.38108 4.16977,-7.68018 1.5509,-2.29909 2.81982,-4.48664 2.81982,-4.86121 0,-0.37458 1.8,-2.83095 4,-5.45861 2.2,-2.62766 4,-5.01685 4,-5.30931 0,-1.4486 18.93816,-20.13777 25.6352,-25.29816 4.20596,-3.24089 9.10557,-7.13003 10.88802,-8.64253 1.78244,-1.5125 3.78068,-2.75 4.44053,-2.75 0.65985,0 3.88705,-1.575 7.17156,-3.5 3.28451,-1.925 6.40264,-3.5 6.92916,-3.5 0.52653,0 2.86492,-0.86593 5.19643,-1.92429 2.3315,-1.05836 5.7016,-2.21912 7.4891,-2.57946 1.7875,-0.36034 3.25,-1.03811 3.25,-1.50615 0,-0.46805 0.8903,-0.9948 1.97845,-1.17055 1.96119,-0.31676 1.96168,-0.35444 0.0561,-4.31955 -1.91409,-3.98278 -6.5961,-16.38457 -9.06066,-24 -1.36415,-4.21521 -1.42667,-4.51075 -2.96153,-14 -1.3243,-8.18747 -0.21406,-34.74656 1.5734,-37.63873 0.74685,-1.20843 0.71244,-1.20017 -8.94495,2.14605 -4.77361,1.65403 -13.50813,3.92233 -19.41004,5.04067 -5.90191,1.11834 -19.05575,3.62423 -29.23075,5.56864 -10.175,1.9444 -20.68878,3.93209 -23.36397,4.41708 -2.67518,0.48499 -9.20018,2.1998 -14.5,3.81069 -5.29981,1.61089 -13.08633,3.71335 -17.30337,4.67214 -5.62633,1.27922 -7.79274,2.22282 -8.13844,3.54478 -0.29407,1.12452 -2.11015,2.23302 -4.83267,2.94977 -18.41595,4.84832 -46.35861,18.11929 -65.86155,31.28002 -13.15387,8.87633 -39.82862,34.15051 -54.65359,51.78398 -2.11552,2.5163 -5.32302,6.3413 -7.12777,8.5 -6.75853,8.08403 -20.880801,30.28463 -26.339191,41.40594 -10.28642,20.95824 -13.5081,33.62047 -12.5563,49.35014 0.82972,13.71203 2.01339,17.66883 5.28563,17.66883 1.8069,0 5.24196,2.60381 12.203,9.25 16.393261,15.65179 33.683251,27.63641 58.894201,40.82273 6.4867,3.3928 16.1767,8.61204 21.53334,11.59831 24.85563,13.85677 39.88334,17.02909 58.32552,12.31237 z m 192.93514,1.01659 c -0.33992,-0.55 -1.15398,-0.99311 -1.80902,-0.98469 -0.71561,0.009 -0.59227,0.40223 0.30902,0.98469 1.92112,1.24153 2.2673,1.24153 1.5,0 z m 78.86967,-1.55493 c 20.26198,-3.20936 23.06138,-3.84226 26.25747,-5.93642 3.65149,-2.39255 1.67402,-3.9494 -2.70009,-2.12575 -1.88488,0.78584 -11.07705,2.60502 -20.42705,4.04262 -16.90128,2.59865 -22.5,4.01595 -22.5,5.6958 0,1.27915 1.56736,1.14351 19.36967,-1.67625 z m -92.87522,-1.4512 c -0.99854,-1.10337 -2.04793,-1.77372 -2.33199,-1.48967 -0.28405,0.28406 0.35069,1.1725 1.41054,1.97433 2.70408,2.04576 3.04783,1.86496 0.92145,-0.48466 z m -4.99445,-0.72573 c -5.79199,-1.00205 -6.50398,-1.3827 -6.616,-3.53719 -0.0938,-1.80464 -0.20613,-1.88233 -0.58765,-0.40655 -0.77413,2.99439 2.21242,5.40773 5.95211,4.80971 2.21522,-0.35424 2.61411,-0.63024 1.25154,-0.86597 z m 9.75,0.0696 c -0.6875,-0.27741 -1.8125,-0.27741 -2.5,0 -0.6875,0.27741 -0.125,0.50439 1.25,0.50439 1.375,0 1.9375,-0.22698 1.25,-0.50439 z m 12.47917,0.0581 c -0.33229,-0.33229 -1.1948,-0.36781 -1.91667,-0.0789 -0.79773,0.31922 -0.56078,0.55618 0.60417,0.60416 1.05416,0.0434 1.64479,-0.19293 1.3125,-0.52522 z m -17.0625,-2.89584 c 0,-0.825 -0.375,-1.5 -0.83334,-1.5 -0.99871,0 -1.0988,1.4012 -0.16666,2.33333 0.92692,0.92692 1,0.86602 1,-0.83333 z m -5.66667,-1.5 c 0,-0.55 -0.45,-1 -1,-1 -0.55,0 -1,0.45 -1,1 0,0.55 0.45,1 1,1 0.55,0 1,-0.45 1,-1 z m 178.68312,-5.1875 c -0.3192,-0.79773 -0.5562,-0.56078 -0.6042,0.60417 -0.043,1.05416 0.193,1.64479 0.5252,1.3125 0.3323,-0.33229 0.3679,-1.1948 0.079,-1.91667 z M 386.33051,388.93233 c 25.00901,-4.40072 71.34992,-3.5597 92.19976,1.67327 1.68619,0.42321 2.30024,0.14796 2.30024,-1.03108 0,-0.88463 0.5625,-1.63191 1.25,-1.66063 2.01151,-0.084 -17.39876,-6.98612 -21.24677,-7.55512 -1.92678,-0.28492 -5.07823,-0.93731 -7.00323,-1.44977 -4.53206,-1.20648 -26.09585,-1.21326 -33.08322,-0.0104 -2.97923,0.51287 -9.24178,1.47617 -13.91678,2.14066 -13.88062,1.97295 -31.09088,6.64685 -32.42527,8.80593 -0.63376,1.02545 2.09862,0.81629 11.92527,-0.91286 z m -21.25,-23.17867 c 0.4125,0.11685 0.75,-0.18941 0.75,-0.68056 0,-0.49116 0.73865,-1.17646 1.64144,-1.52289 1.34625,-0.51661 1.42297,-0.36663 0.42659,0.83392 -1.01554,1.22366 -0.66961,1.56412 2.10856,2.07524 1.82788,0.33628 4.89841,0.39648 6.82341,0.13377 1.925,-0.2627 9.125,-1.27622 16,-2.25226 16.40599,-2.32915 60.25955,-2.30724 79.49387,0.0397 16.53464,2.01754 21.37522,2.01394 23.62001,-0.0176 1.67367,-1.51465 1.54014,-1.78767 -2.42126,-4.95061 -5.13423,-4.09936 -10.18632,-6.48811 -18.69262,-8.83832 -3.575,-0.98774 -7.4,-2.3015 -8.5,-2.91947 -2.54816,-1.43152 -36.26279,-1.83754 -46.37264,-0.55845 -6.94634,0.87885 -23.06264,4.75421 -28.72673,6.90769 -1.41266,0.53709 -2.9807,0.72175 -3.48455,0.41036 -0.50384,-0.31133 -0.91608,-0.0895 -0.91608,0.49291 0,0.58246 -0.81,1.05902 -1.8,1.05902 -0.99,0 -2.2275,0.39942 -2.75,0.88761 -0.5225,0.48818 -2.01885,1.21139 -3.32523,1.60713 -1.8203,0.55142 -2.21183,0.40246 -1.67584,-0.63761 0.38466,-0.74642 0.059,-0.57662 -0.72365,0.37733 -0.78267,0.95395 -1.70116,1.45632 -2.0411,1.11639 -0.60972,-0.60972 -14.68418,7.27758 -14.68418,8.22899 0,0.26979 1.0125,-0.0709 2.25,-0.75711 1.2375,-0.6862 2.5875,-1.15203 3,-1.03518 z m 8.76143,-22.35351 c 5.76872,-2.51128 13.98425,-5.9531 18.25674,-7.64849 4.2725,-1.6954 7.59979,-3.25093 7.39398,-3.45674 -1.07357,-1.07357 -26.6313,9.28559 -34.16215,13.84673 -4.56902,2.76728 -2.93076,2.2396 8.51143,-2.7415 z M 135.63017,223.54099 c 1.48519,-0.78382 5.62534,-4.4244 9.20034,-8.09019 5.90458,-6.05452 9.01363,-8.48307 21.5,-16.79409 2.2,-1.46434 4.45,-3.0098 5,-3.43437 0.55,-0.42456 2.35,-1.61437 4,-2.64401 4.39591,-2.74316 8.49497,-7.77414 8.49765,-10.42961 0.002,-1.94606 -0.35818,-2.20426 -2.24765,-1.61141 -6.41323,2.01226 -24.51452,10.54028 -42.64044,20.08909 -7.97651,4.20206 -12.10956,8.39318 -12.10956,12.27972 0,2.76617 4.34997,12.05999 5.64468,12.05999 0.25005,0 1.66979,-0.6413 3.15498,-1.42512 z m 162.65034,-94.69173 c 1.33374,-1.23988 -0.064,-1.09985 -5.95,0.59609 l -5,1.44065 5,-0.5768 c 2.75,-0.31724 5.4275,-0.97421 5.95,-1.45994 z m 13.869,-2.05908 c 2.65046,-0.56067 4.66034,-1.17807 4.46641,-1.372 -0.69331,-0.6933 -15.30522,1.81056 -16.28541,2.79064 -1.02573,1.0256 1.95653,0.66764 11.819,-1.41864 z m 19.431,-2.54033 c -1.5125,-0.22912 -3.9875,-0.22912 -5.5,0 -1.5125,0.22913 -0.275,0.41659 2.75,0.41659 3.025,0 4.2625,-0.18746 2.75,-0.41659 z"
     id="path2818" />
</svg>
