<?xml version="1.0" encoding="UTF-8" standalone="no"?>
<!-- Created with Inkscape (http://www.inkscape.org/) -->
<svg
   xmlns:svg="http://www.w3.org/2000/svg"
   xmlns="http://www.w3.org/2000/svg"
   version="1.0"
   width="320pt"
   height="239pt"
   id="svg2">
  <defs
     id="defs5">
    <path
       d="M 10,0 L 12.33,7.66 L 20,7.66 L 13.83,12.33 L 16.16,20 L 10,15.33 L 3.83,20 L 6.16,12.33 L 0,7.66 L 7.66,7.66 L 10,0 z "
       style="fill:#ffffff"
       id="Star" />
  </defs>
  <g
     transform="matrix(1.741118,0,0,1.741118,-41.90652,-31.42993)"
     id="g1320">
    <path
       d="M 95.3125,19.71875 C 70.47305,25.055068 67.417093,27.128084 59.84375,28.875 C 59.624063,29.021147 57.334755,25.644569 54.65625,23.28125 C 53.617022,22.822751 49.841526,25.275156 47.625,27.4375 C 43.818202,31.080158 40.995392,33.975126 39.061854,36.468427 C 38.098145,37.645928 36.535492,40.226285 36.34375,41.0625 C 35.943027,43.454787 38.945704,45.417338 40.53125,46.625 L 24.96875,62.8125 L 49.78125,87.09375 L 65.4375,71.375 C 65.478808,71.417424 65.52171,71.459182 65.5625,71.5 L 179.53125,186.3125 C 181.09758,187.87993 186.10304,188.61169 187.65625,187.03125 L 200.3125,174.375 C 201.86571,172.79457 201.34758,169.03618 199.78125,167.46875 L 85.0625,53.90625 C 84.74434,53.587866 84.380196,53.198455 84,52.78125 L 106.21875,30.46875 L 95.3125,19.71875 z "
       style="fill:#fff100;fill-opacity:1;stroke:#000000;stroke-width:1.79999995;stroke-miterlimit:4;stroke-dasharray:none;stroke-opacity:1"
       id="rect1477" />
    <path
       d="M 181.78125,23.90625 C 180.18057,24.05907 179.01942,25.466581 177.8125,26.75 L 37.09375,167.5625 C 34.409711,170.28414 35.427156,173.1591 37.1875,175.0625 L 49.28125,187.625 C 52.008835,189.61632 54.347216,188.84082 57.03125,186.03125 L 185.5625,57.96875 L 190.78125,63.3125 L 181.6875,75.53125 L 205.75,109.65625 L 252.90625,77.71875 L 220.65625,51.90625 L 191.40625,52.125 L 197.21875,46.34375 C 200.16657,43.094516 200.1806,41.948017 198.875,39.34375 C 194.87094,33.876815 189.43716,28.671478 185.53125,25.53125 C 184.01051,24.239176 182.80733,23.808288 181.78125,23.90625 z "
       style="fill:#fff100;fill-opacity:1;stroke:#000000;stroke-width:1.79999995;stroke-miterlimit:4;stroke-dasharray:none;stroke-opacity:1"
       id="rect2376" />
  </g>
</svg>
