<?xml version="1.0" encoding="UTF-8" standalone="no"?>
<!-- Created with Inkscape (http://www.inkscape.org/) -->

<svg
   xmlns:dc="http://purl.org/dc/elements/1.1/"
   xmlns:cc="http://creativecommons.org/ns#"
   xmlns:rdf="http://www.w3.org/1999/02/22-rdf-syntax-ns#"
   xmlns:svg="http://www.w3.org/2000/svg"
   xmlns="http://www.w3.org/2000/svg"
   xmlns:sodipodi="http://sodipodi.sourceforge.net/DTD/sodipodi-0.dtd"
   xmlns:inkscape="http://www.inkscape.org/namespaces/inkscape"
   id="svg2"
   version="1.1"
   inkscape:version="0.47 r22583"
   width="800"
   height="600"
   sodipodi:docname="radiotelescope.jpg">
  <metadata
     id="metadata8">
    <rdf:RDF>
      <cc:Work
         rdf:about="">
        <dc:format>image/svg+xml</dc:format>
        <dc:type
           rdf:resource="http://purl.org/dc/dcmitype/StillImage" />
        <dc:title></dc:title>
      </cc:Work>
    </rdf:RDF>
  </metadata>
  <defs
     id="defs6">
    <inkscape:perspective
       sodipodi:type="inkscape:persp3d"
       inkscape:vp_x="0 : 0.5 : 1"
       inkscape:vp_y="0 : 1000 : 0"
       inkscape:vp_z="1 : 0.5 : 1"
       inkscape:persp3d-origin="0.5 : 0.33333333 : 1"
       id="perspective10" />
  </defs>
  <sodipodi:namedview
     pagecolor="#ffffff"
     bordercolor="#666666"
     borderopacity="1"
     objecttolerance="10"
     gridtolerance="10"
     guidetolerance="10"
     inkscape:pageopacity="0"
     inkscape:pageshadow="2"
     inkscape:window-width="640"
     inkscape:window-height="482"
     id="namedview4"
     showgrid="false"
     inkscape:zoom="0.39333333"
     inkscape:cx="400"
     inkscape:cy="300"
     inkscape:window-x="0"
     inkscape:window-y="25"
     inkscape:window-maximized="0"
     inkscape:current-layer="svg2" />
  <path
     style="fill:#000000"
     d="m 2.542369,566.66949 c 0,-23.925 0.23111,-43.5 0.51357,-43.5 0.28247,0 1.38841,0.54634 2.45765,1.2141 1.63876,1.02342 2.33003,0.85153 4.40147,-1.09449 l 2.45738,-2.30859 1.65964,2.53293 c 1.26981,1.93797 2.40551,2.48307 4.83497,2.32063 4.05651,-0.27121 5.56661,-1.24844 6.75358,-4.37041 0.79019,-2.07835 1.21075,-2.2992 2.43832,-1.28042 0.81588,0.67713 1.48342,1.82448 1.48342,2.54968 0,2.41238 1.85458,2.50882 4.01412,0.20874 l 2.13335,-2.27217 1.74902,2.1419 c 2.43171,2.97792 7.62749,2.63751 10.12691,-0.66349 1.77093,-2.33886 1.95087,-2.37736 3.19592,-0.68364 0.72563,0.98713 2.38146,1.87478 3.67961,1.97257 1.59809,0.12038 2.67295,1.0747 3.32851,2.95523 1.16447,3.34042 2.06145,3.48103 3.96055,0.62083 1.14135,-1.71896 2.60912,-2.22014 7.23303,-2.46972 3.19061,-0.17223 6.44019,-0.84353 7.2213,-1.49179 1.11862,-0.92838 1.69458,-0.80342 2.71236,0.58848 1.12332,1.53624 1.57444,1.59084 3.45258,0.41793 1.86166,-1.16263 2.39276,-1.11685 3.84068,0.33106 1.3405,1.34051 1.43505,1.97572 0.4676,3.14142 -1.51118,1.82087 0.0702,3.03244 2.81919,2.15994 1.2206,-0.38741 2.24977,-0.0135 2.83345,1.02951 0.50414,0.90085 2.41639,1.94464 4.24945,2.31954 3.856841,0.78881 4.980131,2.67878 2.1298,3.58344 -2.84365,0.90254 -3.53873,3.61641 -1.43637,5.60821 1.58516,1.50179 2.15917,1.53755 5.038941,0.31385 3.09224,-1.31397 3.25,-1.64189 3.25,-6.75569 0,-3.55755 0.50714,-5.79558 1.5,-6.61958 0.825,-0.68469 1.5,-2.04164 1.5,-3.01546 0,-0.97381 0.7875,-2.07855 1.75,-2.45497 0.9625,-0.37643 14.6875,-0.94396 30.5,-1.26119 l 28.75,-0.57677 0,2.24209 c 0,2.04502 -0.33653,2.18524 -3.82863,1.59525 -4.30287,-0.72696 -5.92147,0.50921 -7.68994,5.87302 -0.91062,2.76195 -1.42606,3.08566 -4.75143,2.98397 l -3.73,-0.11407 0,4.27875 0,4.27874 7.25,0.6511 c 3.9875,0.35811 11.975,0.509 17.75,0.33532 l 10.5,-0.31578 0.5,-4.5 c 0.59884,-5.38954 2.07331,-5.79295 3.65503,-1 l 1.15503,3.5 0.96757,-2.5 c 2.94746,-7.61565 2.29526,-12 -1.78506,-12 -0.9694,0 -2.48144,-1.09717 -3.36009,-2.43816 -1.47833,-2.25621 -1.46826,-2.47738 0.13499,-2.96387 0.95289,-0.28914 15.00753,-0.98565 31.23253,-1.54779 35.33424,-1.22422 73.56167,0.19523 107,3.97308 4.675,0.52818 11.13564,0.96402 14.35699,0.96854 4.67978,0.007 5.74613,0.2971 5.30542,1.44555 -0.32041,0.83499 0.1586,1.62453 1.14302,1.884 0.93201,0.24566 -4.54803,0.49885 -12.17787,0.56265 -11.86004,0.0992 -13.70198,-0.0894 -12.69736,-1.2999 0.93175,-1.12269 0.8018,-1.52753 -0.62755,-1.95492 -2.72171,-0.81383 -16.22125,-1.04391 -16.97583,-0.28933 -0.36309,0.36308 0.0347,0.66015 0.88407,0.66015 0.84932,0 2.07015,0.63371 2.71296,1.40825 0.92518,1.11477 0.6381,1.93889 -1.37755,3.95454 -2.11617,2.11618 -2.5463,3.48305 -2.5463,8.09176 0,5.84272 1.13863,7.04749 3.11452,3.29545 2.34622,-4.45527 5.07561,-4.11293 6.30642,0.79102 0.81721,3.25604 2.18151,3.12108 2.94192,-0.29102 0.33707,-1.5125 1.295,-3.62581 2.12874,-4.69625 1.97156,-2.53129 3.58496,-1.01966 4.42452,4.1454 0.39251,2.41482 1.15862,3.80085 2.10084,3.80085 1.09038,0 1.61542,-1.5886 1.98304,-6 l 0.5,-6 3.5,0 3.5,0 0.17725,5 c 0.0975,2.75 0.20999,5.5625 0.25,6.25 0.0495,0.84998 1.95382,1.25 5.95078,1.25 4.94651,0 6.10947,-0.34858 7.33851,-2.19961 l 1.46048,-2.1996 2.77903,2.18598 c 3.27761,2.57816 4.07884,2.2888 4.88979,-1.76596 0.79711,-3.98558 2.30559,-3.81961 4.35555,0.47919 0.91797,1.925 2.14819,3.49542 2.73382,3.48983 0.58564,-0.006 1.85581,-1.89208 2.8226,-4.19219 2.12928,-5.06577 3.72161,-4.15986 4.47762,2.54743 0.45705,4.05498 0.69454,4.40335 2.31287,3.39269 2.42504,-1.51446 6.9517,0.51609 6.9517,3.11836 0,2.43003 2.52167,4.54141 4.51183,3.77771 1.0429,-0.4002 1.34792,-1.34444 0.94845,-2.93607 -0.37948,-1.51197 -0.0205,-2.81782 1.00952,-3.6727 2.14206,-1.77775 6.14114,0.28867 6.97301,3.60312 0.32741,1.3045 1.26172,2.37182 2.07624,2.37182 1.92758,0 1.87189,-0.91054 -0.19542,-3.19489 -2.32509,-2.5692 -0.76933,-3.74139 5.21011,-3.92557 3.99874,-0.12317 5.40921,-0.66208 7.23994,-2.76625 l 2.27367,-2.61329 1.5983,2.25 c 0.87906,1.2375 2.21841,2.25 2.97632,2.25 1.51301,0 1.76033,-1.35672 1.41926,-7.7854 -0.12505,-2.35697 0.31962,-4.94447 0.98815,-5.75 0.95535,-1.15113 0.94906,-1.78565 -0.0294,-2.9646 -1.03807,-1.2508 -0.90254,-1.5 0.81582,-1.5 1.50635,0 2.02804,0.60528 1.93926,2.25 -0.0668,1.2375 -0.039,5.29864 0.0617,9.02475 0.16287,6.02325 0.43278,6.86866 2.43319,7.62138 1.2375,0.46564 3.7125,0.62843 5.5,0.36175 2.93142,-0.43735 3.25,-0.81684 3.25,-3.87138 0,-2.68551 -0.40177,-3.3865 -1.94098,-3.3865 -1.06754,0 -2.2431,-0.48883 -2.61235,-1.08629 -0.43314,-0.70084 0.24028,-0.96696 1.89786,-0.75 1.5834,0.20725 3.0654,-0.32921 3.86235,-1.3981 0.86265,-1.15703 2.04213,-1.53432 3.54312,-1.13337 2.51145,0.67086 2.74742,1.5698 1.18061,4.49742 -0.76314,1.42593 -0.75659,2.37509 0.0228,3.31425 0.68075,0.82025 0.85294,3.35207 0.45706,6.7204 -0.47216,4.01732 -0.27721,5.70143 0.7596,6.56191 0.82256,0.68266 5.79805,1.24944 12.12755,1.38152 7.6551,0.15973 11.0595,0.61766 11.8722,1.59698 0.9415,1.13439 1.6278,0.90528 3.9487,-1.3183 2.2098,-2.11708 3.1063,-2.44466 4.2021,-1.53528 0.7661,0.63582 4.0278,1.39984 7.2482,1.69781 3.2203,0.29798 6.0192,0.70582 6.2197,0.90632 0.2005,0.20049 2.3773,-0.5258 4.8373,-1.61399 2.9114,-1.28784 5.4735,-1.75873 7.3394,-1.34891 1.5766,0.34628 3.6919,0.16931 4.7007,-0.39327 1.9461,-1.08538 30.0862,-5.0991 35.7497,-5.0991 2.5101,0 3.4823,0.50193 3.8741,2 0.2877,1.1 1.2926,2 2.2333,2 1.2331,0 1.5603,-0.57324 1.1728,-2.05489 -0.4008,-1.53275 0.094,-2.29503 1.9485,-3 3.264,-1.24096 6.637,-1.20934 5.8556,0.0549 -0.3399,0.55 -1.4829,1 -2.5399,1 -1.2307,0 -2.1542,0.92553 -2.5678,2.57322 -0.9748,3.88413 0.8459,4.86662 3.5953,1.94002 2.9787,-3.17064 3.7416,-3.14582 7.2783,0.23676 l 2.8753,2.75 55.4927,-0.1801 c 37.6746,-0.12227 55.9065,-0.5235 56.7814,-1.24959 0.9149,-0.75928 2.1784,-0.75931 4.3563,-9e-5 2.0428,0.71211 5.6066,0.77392 10.667,0.18501 5.4471,-0.63391 8.6054,-0.53849 11.1518,0.33692 3.4425,1.18346 3.6121,1.12351 5.4773,-1.93543 1.0587,-1.7362 1.9266,-3.72887 1.9286,-4.42816 0.01,-2.30964 5.237,-9.22856 6.9761,-9.22856 0.9386,0 2.2192,1.125 2.8457,2.5 1.6415,3.60269 2.4884,3.13096 4.4883,-2.5 0.9768,-2.75 2.1646,-5 2.6397,-5 0.4752,0 2.0506,2.025 3.5011,4.5 1.4504,2.475 3.0164,4.5 3.48,4.5 0.4635,0 1.5387,-1.06198 2.3891,-2.35996 1.1187,-1.70724 2.4151,-2.32954 4.6875,-2.25 2.5881,0.0906 3.2384,0.59408 3.6937,2.85996 0.7349,3.65751 3.1463,3.49677 4.4691,-0.2979 0.7582,-2.17507 1.8824,-3.21189 3.9255,-3.62052 1.5747,-0.31494 3.3783,-1.19338 4.008,-1.95209 0.6296,-0.75872 2.4132,-1.37949 3.9634,-1.37949 1.5502,0 3.0966,-0.45 3.4365,-1 0.34,-0.55 2.2422,-1 4.2271,-1 5.7952,0 16.0927,-2.07788 17.2584,-3.48248 0.7634,-0.91988 0.7622,-6.00819 0,-17.65493 -0.5923,-8.99943 -1.2662,-16.92509 -1.4976,-17.61259 -0.2314,-0.6875 -0.047,-1.25 0.4101,-1.25 0.457,0 1.357,6.4125 2.0001,14.25 1.6704,20.35806 1.7013,20.48919 5.2539,22.32629 2.3049,1.19196 3.7096,1.3358 5.7051,0.58423 1.456,-0.54838 3.3223,-0.98023 4.1473,-0.95967 0.825,0.0206 2.2875,-0.28938 3.25,-0.68873 1.6494,-0.68437 1.75,1.55022 1.75,38.88542 l 0,39.61152 -206.0533,-0.0138 c -135.823,-0.009 -205.84483,-0.35152 -205.44123,-1.00456 0.33676,-0.54489 0.13574,-0.99071 -0.44672,-0.99071 -0.58246,0 -1.05902,0.44196 -1.05902,0.98213 0,1.54914 -183.72382,1.27028 -184.35362,-0.27982 -0.36739,-0.90425 -0.50806,-0.89243 -0.56743,0.0477 -0.0626,0.99122 -20.98772,1.24999 -101.07895,1.24999 l -101.000001,0 0,-43.5 z m 339.250001,41.83772 c -0.6875,-0.27741 -1.8125,-0.27741 -2.5,0 -0.6875,0.27741 -0.125,0.50439 1.25,0.50439 1.375,0 1.9375,-0.22698 1.25,-0.50439 z m 48.987,-42.25362 c 0.40535,-0.36195 -0.37935,-2.30096 -1.74378,-4.30889 -2.01625,-2.96718 -3.29486,-3.77288 -6.8283,-4.30275 -2.39113,-0.35857 -5.20643,-0.55974 -6.25622,-0.44705 -3.68842,0.39595 -4.4087,-0.0493 -4.4087,-2.72541 0,-2.00253 -0.29107,-2.40893 -1.12678,-1.57322 -1.88241,1.88241 -0.0105,6.3991 4.53653,10.94613 4.21347,4.21347 4.3432,4.26266 9.68048,3.67 2.97537,-0.33039 5.74142,-0.89685 6.14677,-1.25881 z m -114.487,-22.54219 c 3.54557,-0.83884 4.42261,-2.54191 1.30902,-2.54191 -1.06754,0 -2.18757,-0.39899 -2.48896,-0.88664 -0.30138,-0.48765 -2.18655,-1.19403 -4.18927,-1.56975 -5.84377,-1.09629 -2.63394,-2.42834 6.62482,-2.74922 8.28011,-0.28696 8.49728,-0.35746 8.60901,-2.79439 0.063,-1.375 0.46611,-3.33292 0.89572,-4.35092 0.5082,-1.20427 0.29347,-2.16513 -0.61462,-2.75027 -2.94662,-1.89867 -9.50812,-3.0738 -13.37657,-2.39569 -5.4612,0.95732 -17.94065,0.56398 -18.35248,-0.57845 -0.45188,-1.2535 -5.51568,-1.17566 -6.79579,0.10445 -0.7055,0.7055 -3.99168,0.65257 -10.45,-0.16833 -5.18149,-0.6586 -10.89929,-1.15259 -12.70623,-1.09775 -5.28421,0.16037 -13.40663,3.25509 -13.94481,5.3131 -0.36822,1.40806 -1.12104,1.70362 -3.25318,1.27719 -3.38372,-0.67674 -5.09091,1.38799 -2.63343,3.18494 1.10931,0.81115 2.8485,0.97331 5.06864,0.47258 2.74126,-0.61825 3.46372,-0.44165 3.82364,0.93468 0.36117,1.38115 1.91221,1.7525 8.33413,1.99537 9.01783,0.34104 10.1747,0.3305 12.78273,-0.11654 1.04081,-0.1784 2.09081,0.23814 2.33333,0.92564 0.27535,0.78054 -0.48204,1.25 -2.01664,1.25 -1.35168,0 -4.37076,0.675 -6.70906,1.5 -2.3383,0.825 -5.43238,1.50689 -6.87573,1.51531 -2.05565,0.012 -2.29925,0.22373 -1.12427,0.97717 0.825,0.52903 2.31975,0.70658 3.32166,0.39456 1.00192,-0.31202 2.58705,0.12536 3.52253,0.97195 1.10175,0.99707 4.15861,1.64524 8.67833,1.84013 12.38688,0.53414 36.88352,0.13392 40.22748,-0.65721 z m 15.75,0.45809 c -0.33992,-0.55 -1.06803,-1 -1.61803,-1 -0.55,0 -0.72189,0.45 -0.38197,1 0.33992,0.55 1.06803,1 1.61803,1 0.55,0 0.72189,-0.45 0.38197,-1 z m 495.05887,-5.5318 c -2.2118,-1.67295 -4.1798,-1.89058 -5.0061,-0.55361 -0.69,1.11647 1.1006,1.91155 4.4472,1.97466 2.4114,0.0455 2.4312,-0.005 0.5589,-1.42105 z m -588.4297,-8.73903 c -1.66487,-1.66487 -2.60779,-0.0108 -1.05822,1.85632 0.93718,1.12923 1.47919,1.26409 1.755,0.43666 0.21948,-0.65843 -0.0941,-1.69027 -0.69678,-2.29298 z m -42.66752,-1.07747 c 2.2859,-1.67149 1.22216,-3.6517 -1.96165,-3.6517 -2.70138,0 -3.94067,1.40925 -3.12,3.54789 0.69723,1.81693 2.68332,1.85751 5.08165,0.10381 z m -17.73493,-2.31684 c 0.50686,-1.54044 -3.64316,-2.81842 -4.94025,-1.52133 -0.55671,0.55671 -0.69395,1.52715 -0.30498,2.15652 0.87569,1.4169 4.72333,0.95095 5.24523,-0.63519 z m 10.27328,-0.33486 c 0,-0.55 -1.15156,-1 -2.55902,-1 -1.45136,0 -2.2915,0.43284 -1.94098,1 0.33992,0.55 1.49148,1 2.55902,1 1.06754,0 1.94098,-0.45 1.94098,-1 z m -23,-1 c 0,-0.55 -0.45,-1 -1,-1 -0.55,0 -1,0.45 -1,1 0,0.55 0.45,1 1,1 0.55,0 1,-0.45 1,-1 z m 439.19797,32.32833 c -2.2918,-0.32121 -3.65,-1.22635 -4.4392,-2.9584 -0.6831,-1.49928 -2.2592,-2.72002 -3.9479,-3.05776 -1.546,-0.30919 -2.8109,-0.95592 -2.8109,-1.43717 0,-1.16713 9.6003,-1.10805 14,0.0861 1.925,0.5225 7.1,1.18329 11.5,1.46843 11.2218,0.72722 33.6134,3.35048 34.2788,4.01589 0.305,0.30499 0.36,0.7491 0.1222,0.9869 -0.63,0.62996 -44.803,1.44258 -48.703,0.89596 z m 51.802,-3.32833 c -0.8543,-1.5963 -0.7605,-2 0.4649,-2 0.8685,0 1.5351,0.86852 1.5351,2 0,1.1 -0.2091,2 -0.4648,2 -0.2556,0 -0.9465,-0.9 -1.5352,-2 z m 11,1.2 c 0,-1.30199 2.2865,-3.2 3.855,-3.2 1.155,0 1.0818,0.41237 -0.355,2 -1.8592,2.05439 -3.5,2.61695 -3.5,1.2 z m 50.8024,-0.13158 c -3.974,-0.79161 -6.7888,-2.62322 -6.8246,-4.44086 -0.012,-0.62016 -0.8794,-2.24312 -1.9271,-3.60659 -1.6454,-2.14144 -1.8807,-2.2164 -1.7277,-0.55039 0.1178,1.28293 -0.7454,2.26184 -2.5781,2.92388 -3.8296,1.38336 -5.0648,-0.0867 -3.5174,-4.1862 1.2944,-3.4291 2.5742,-3.96291 4.6949,-1.95826 1.0901,1.03036 1.1252,0.8662 0.2,-0.93426 -3.1202,-6.07219 0.6307,-7.30669 3.9978,-1.31574 1.2365,2.2 2.578,4 2.9813,4 0.4032,0 1.5065,-2.025 2.4517,-4.5 0.9452,-2.475 2.0561,-4.5 2.4688,-4.5 0.4126,0 1.5209,1.6875 2.463,3.75 0.9421,2.0625 2.6034,5.65194 3.6918,7.97653 3.3612,7.1787 1.8049,8.97118 -6.3744,7.34189 z m -185.5524,-0.7307 c -0.6875,-0.27741 -1.25,-1.55613 -1.25,-2.8416 0,-1.81501 -0.7131,-2.49384 -3.1917,-3.03824 l -3.1918,-0.70103 2.5719,-1.34757 c 1.4146,-0.74117 3.9357,-1.24896 5.6025,-1.12843 2.6829,0.19401 3.1006,0.65626 3.6413,4.02982 0.8419,5.25176 -0.2808,6.60127 -4.1822,5.02705 z m 144.5625,-0.0208 c 0.7219,-0.28887 1.5844,-0.25335 1.9167,0.0789 0.3323,0.33229 -0.2583,0.56864 -1.3125,0.52522 -1.1649,-0.048 -1.4019,-0.28494 -0.6042,-0.60416 z m 24.1875,-1.31692 c 0,-0.55 1.7735,-1 3.941,-1 2.1676,0 4.2191,0.45 4.559,1 0.3775,0.61081 -1.1562,1 -3.9409,1 -2.5075,0 -4.5591,-0.45 -4.5591,-1 z m -156.3053,-0.69998 c -2.9996,-0.77757 -1.2884,-2.77908 2.6608,-3.11206 3.3074,-0.27887 3.6712,-0.58343 3.4227,-2.86491 -0.3251,-2.98322 2.4948,-5.45007 4.2377,-3.7072 1.2461,1.24607 -1.7768,7.36736 -3.6434,7.37783 -0.6202,0.003 -1.6878,0.68132 -2.3725,1.50632 -0.6847,0.825 -1.5273,1.4478 -1.8724,1.384 -0.3452,-0.0638 -1.44,-0.32659 -2.4329,-0.58398 z m 114.8121,-0.28914 c -0.3437,-0.55599 -0.3548,-1.44769 -0.025,-1.98156 0.8431,-1.36418 -3.8673,-2.36958 -6.6598,-1.42149 -1.2771,0.43363 -2.7721,0.60382 -3.3221,0.3782 -0.55,-0.22562 -8.3036,-0.4409 -17.2303,-0.4784 -10.813,-0.0454 -16.6141,-0.452 -17.3802,-1.21815 -0.8667,-0.86664 -0.2716,-1.31478 2.4153,-1.81885 1.961,-0.36788 4.0643,-0.36052 4.6741,0.0163 0.6098,0.37687 1.7702,0.13616 2.5788,-0.53489 0.9428,-0.78246 3.045,-1.00425 5.8605,-0.61834 3.0778,0.42186 4.7252,0.19837 5.5102,-0.74754 1.0147,-1.22262 7.8006,-2.37152 17.0716,-2.89034 2.94,-0.16452 3.5511,0.16412 3.8195,2.05414 0.3784,2.66392 3.1805,3.06039 3.1805,0.45 0,-4.38689 5.0231,-5.63936 6.818,-1.7 1.5601,3.42406 2.8893,3.1362 4.6175,-1 1.7886,-4.28064 2.8583,-4.37411 5.7226,-0.5 1.2199,1.65 2.5393,3 2.9321,3 0.3928,0 1.1847,-1.35 1.7599,-3 0.5752,-1.65 1.4495,-3 1.9429,-3 1.9856,0 4.207,3.86971 4.207,7.32874 0,4.23587 1.5291,4.79875 3.1819,1.17126 0.6265,-1.375 1.4856,-2.5 1.909,-2.5 0.4235,0 0.9459,-1.0125 1.161,-2.25 0.3685,-2.12025 0.4612,-2.08178 1.6083,0.66703 0.9095,2.17946 0.9276,3.09608 0.072,3.62516 -0.6722,0.41546 -0.8604,1.60712 -0.4554,2.88336 0.6361,2.00407 0.3494,2.17626 -3.643,2.1882 -2.3833,0.007 -5.9083,0.0698 -7.8333,0.13925 -1.925,0.0694 -7.9553,-0.25068 -13.4006,-0.71142 -7.3789,-0.62434 -9.7198,-0.54529 -9.1909,0.31036 0.3902,0.63143 1.5829,1.14806 2.6505,1.14806 1.0675,0 1.941,0.35428 1.941,0.78729 0,1.18668 -5.7752,1.38554 -6.4933,0.22359 z m -96.0908,-4.36931 c -0.948,-2.47034 -0.029,-5.09235 1.9153,-5.46686 1.494,-0.2877 1.7528,0.21851 1.4886,2.91151 -0.3427,3.4925 -2.4401,5.06704 -3.4039,2.55535 z m 6.185,-0.80423 c 1.1556,-1.28554 2.4078,-3.20009 2.7828,-4.25456 1.1677,-3.28348 3.017,-0.28847 1.9016,3.07972 -0.7002,2.11444 -1.6844,2.92346 -3.8625,3.17484 l -2.9229,0.33734 2.101,-2.33734 z m -29.142,0.0962 c -0.2172,-0.35139 0.2393,-1.49269 1.0145,-2.53622 1.1255,-1.51513 1.7737,-1.67393 3.218,-0.78833 2.7255,1.67125 2.1896,3.69961 -1.0146,3.83987 -1.5527,0.068 -3.0008,-0.16392 -3.2179,-0.51532 z m 36.2077,0.39979 c -1.1506,-1.15063 -0.7282,-2.33333 0.8333,-2.33333 0.825,0 1.5,0.675 1.5,1.5 0,1.56157 -1.1827,1.98397 -2.3333,0.83333 z m 8.3333,-2.33333 c 0,-0.55 0.45,-1 1,-1 0.55,0 1,0.45 1,1 0,0.55 -0.45,1 -1,1 -0.55,0 -1,-0.45 -1,-1 z m 10.1898,-1.61832 c 0.8901,-0.89008 2.1115,-1.31353 2.7143,-0.94099 1.9857,1.22722 1.1433,2.55931 -1.6184,2.55931 -2.5009,0 -2.587,-0.12723 -1.0959,-1.61832 z m 22.8102,-2.38168 c 0,-0.55 0.4766,-1 1.0591,-1 0.5824,0 0.7809,0.45 0.4409,1 -0.3399,0.55 -0.8164,1 -1.059,1 -0.2425,0 -0.441,-0.45 -0.441,-1 z m -75.7708,-2.1875 c 0.6181,-1.85422 2.7708,-2.16176 2.7708,-0.39583 0,0.87083 -0.7125,1.58333 -1.5833,1.58333 -0.8708,0 -1.4052,-0.53437 -1.1875,-1.1875 z m 98.4375,-0.47917 c -1.1506,-1.15063 -0.7282,-2.33333 0.8333,-2.33333 0.825,0 1.5,0.675 1.5,1.5 0,1.56157 -1.1827,1.98397 -2.3333,0.83333 z m -156.3162,-23.08333 c -0.9618,-1.47727 -1.4654,-1.55519 -3.23135,-0.5 -2.85166,1.70392 -3.62915,1.56948 -2.03462,-0.35182 1.18664,-1.42981 0.91053,-1.56404 -2.57138,-1.25 -3.4664,0.31264 -3.9671,0.0734 -4.49644,-2.14818 -0.49227,-2.06604 -1.28315,-2.55645 -4.55617,-2.82521 -7.18583,-0.59006 -16.64963,-10.41363 -15.65998,-16.2553 0.15658,-0.92423 -1.09829,-3.0634 -2.78858,-4.7537 -2.32595,-2.32595 -2.92763,-3.65357 -2.47432,-5.4597 0.41673,-1.66039 -0.37346,-4.0323 -2.59729,-7.79626 -3.24803,-5.49749 -15.9522,-29.82037 -25.56366,-48.94313 -5.5415,-11.02526 -5.40604,-10.50417 -15.97869,-61.4667 -0.91282,-4.4 -2.74853,-12.90372 -4.07936,-18.89715 -1.33082,-5.99343 -2.18606,-11.50593 -1.90054,-12.25 0.28553,-0.74407 1.63171,-1.35285 2.99151,-1.35285 3.03161,0 3.9701,-1.351 3.16549,-4.55684 -0.39211,-1.5623 -1.32741,-2.44316 -2.59414,-2.44316 -2.24127,0 -2.45394,-1.34472 -0.91218,-5.76744 1.20076,-3.4445 -0.21648,-7.24629 -3.96639,-10.63991 -1.31263,-1.18791 -2.10238,-3.12001 -2.10238,-5.14339 0,-2.77995 0.68788,-3.68218 4.83755,-6.34501 2.66065,-1.70734 5.13175,-3.10425 5.49134,-3.10425 0.35959,0 2.62519,-1.50479 5.03465,-3.34398 2.40947,-1.83918 14.90086,-9.32873 27.75865,-16.64343 47.71028,-27.14201 54.19198,-31.64274 61.72908,-42.8635 4.3293,-6.44503 5.7379,-10.85622 7.7114,-24.14909 0.2858,-1.925 1.7322,-7.1 3.2143,-11.5 3.2004,-9.50159 3.6519,-23.0566 1.0083,-30.26948 -4.6208,-12.60763 -20.0984,-30.00309 -36.08677,-40.55834 -55.115,-36.385952 -151.72582,-53.495472 -234.87354,-41.595482 -46.72099,6.68664 -82.34378,21.144212 -102.388691,41.554622 -8.54677,8.70262 -12.9719,16.62358 -14.60397,26.14107 -1.22996,7.17258 -1.115,8.59203 2.20522,27.22761 0.53895,3.025 1.04404,8.875 1.12242,13 0.0784,4.125 0.46461,7.95 0.85828,8.5 0.39368,0.55 1.70302,3.67759 2.90965,6.95021 2.34475,6.3594 12.455041,18.96318 18.504871,23.06871 1.79133,1.21563 7.59002,5.46716 12.88597,9.44785 8.12355,6.10605 9.73022,7.77714 10.27638,10.6884 0.35605,1.89793 -0.11669,12.08944 -1.05053,22.6478 -0.93385,10.55837 -1.7759,20.47616 -1.87123,22.03955 -0.15032,2.46512 0.51749,3.2154 5.02992,5.65108 2.86179,1.54471 5.72114,2.9812 6.35412,3.19219 0.68083,0.22694 -0.76609,3.18363 -3.54273,7.23934 -2.58149,3.77064 -5.83716,9.49253 -7.23484,12.71529 -2.66868,6.15347 -4.28339,7.0713 -7.43021,4.22346 -1.67752,-1.51813 -1.85659,-1.50921 -2.48323,0.12379 -0.43395,1.13085 -0.084,2.09087 0.97915,2.68581 2.06393,1.15503 2.15529,2.82652 0.15449,2.82652 -0.825,0 -1.5,0.63853 -1.5,1.41896 0,0.78043 -0.77969,2.77749 -1.73264,4.43791 -1.68896,2.94285 -1.6738,3.08159 0.60151,5.50355 2.25273,2.39792 2.30934,2.86229 1.6229,13.31209 -0.52918,8.05568 -1.21305,11.65465 -2.67142,14.05864 -1.70189,2.80541 -1.77916,3.48958 -0.58639,5.19249 1.06638,1.52247 1.20151,3.93215 0.60391,10.76885 -0.42342,4.84413 -1.2574,14.43251 -1.85327,21.30751 -1.21874,14.06149 -3.52084,37.23018 -4.96813,50 -0.52985,4.675 -1.22146,13.12037 -1.53691,18.76748 -0.51338,9.19052 -0.93948,10.96956 -4.06233,16.9608 -1.91883,3.68132 -4.147681,7.42139 -4.953011,8.31126 -0.80532,0.88987 -1.46422,2.17459 -1.46422,2.85494 0,0.68035 -0.48223,2.13806 -1.07162,3.23934 -1.00953,1.88633 -1.21496,1.90842 -3.54558,0.38134 -1.42899,-0.93631 -3.31976,-1.35256 -4.47637,-0.98546 -1.10132,0.34954 -2.54757,0.18308 -3.2139,-0.36991 -0.66632,-0.553 -2.89472,-0.84902 -4.95201,-0.65781 -3.14555,0.29235 -3.74052,0.0415 -3.74052,-1.57717 0,-1.97881 -0.96618,-2.26354 -6.64591,-1.95848 -2.16137,0.11609 -3.59163,-0.46738 -4.57011,-1.86436 -2.00446,-2.86176 -5.76778,-4.06636 -8.62993,-2.76234 -1.90134,0.86627 -2.52671,0.74585 -3.29969,-0.6354 -0.52455,-0.93732 -1.6205,-1.70423 -2.43543,-1.70423 -0.81493,0 -1.7164,-0.61162 -2.00325,-1.35916 -0.3553,-0.92588 -2.46759,-1.38675 -6.62605,-1.44571 -3.35747,-0.0476 -6.37285,-0.52077 -6.70083,-1.05146 -0.32799,-0.5307 -2.7648,-0.82841 -5.41513,-0.66159 -3.41379,0.21488 -4.97461,-0.10275 -5.35322,-1.08938 -0.59199,-1.54272 -3.32045,-1.92913 -3.32045,-0.47025 0,0.50734 -1.6875,1.44152 -3.75,2.07595 -7.21014,2.21786 -6.94858,1.98813 -4.51996,3.97002 1.93583,1.57974 2.03445,1.98215 0.74752,3.05021 -1.95803,1.62502 -6.86661,0.59231 -9.44631,-1.98738 -2.03049,-2.0305 -2.03125,-2.12099 -2.03125,-244.53125 l 0,-242.499999 400.000001,0 399.99997,0 0,222.418209 c 0,122.33002 -0.2721,223.12743 -0.6047,223.99426 -0.3327,0.86682 -0.993,1.33617 -1.4673,1.04298 -0.4744,-0.29318 -1.4362,0.38546 -2.1373,1.50809 -1.0932,1.75047 -1.9398,1.9529 -5.9456,1.42152 -4.0364,-0.53545 -5.1371,-0.26408 -8.1024,1.99766 -4.1157,3.13915 -7.365,3.3825 -8.2427,0.61728 -0.9025,-2.8437 -1.9253,-2.48553 -3.5695,1.25 -1.195,2.71505 -1.8918,3.19593 -4.2334,2.9215 -1.5416,-0.18068 -3.3593,0.13326 -4.0394,0.69763 -0.68,0.56438 -3.239,1.4761 -5.6866,2.02605 -3.5643,0.80083 -4.6077,0.71853 -5.2412,-0.41341 -0.6608,-1.18072 -1.3784,-1.08334 -4.3607,0.59169 -2.9071,1.63283 -3.8496,1.7727 -5.0776,0.75352 -1.238,-1.02746 -1.7671,-0.90022 -2.9555,0.71077 -0.7961,1.07924 -2.0635,1.83782 -2.8164,1.68573 -2.242,-0.4529 -2.8407,1.76432 -1.0197,3.77652 2.0182,2.23003 1.1089,4.75022 -1.0633,2.9474 -0.9277,-0.76991 -3.376,-0.91869 -7.411,-0.45038 -5.0479,0.58588 -6.0257,0.45096 -6.0257,-0.83145 0,-2.73909 -3.8579,-3.05562 -5.9947,-0.49183 -1.0663,1.27944 -1.9537,2.67233 -1.972,3.09531 -0.018,0.42298 -1.1876,0.47935 -2.5983,0.12526 -1.9307,-0.48457 -3.2292,-0.0224 -5.25,1.8686 -4.1942,3.92464 -6.626,4.2593 -8.0612,1.10937 -1.181,-2.59208 -1.2529,-2.6106 -2.9676,-0.76436 -0.9664,1.04064 -2.0758,2.72648 -2.4653,3.74629 -0.5769,1.51061 -1.4941,1.77232 -4.9495,1.41229 -4.607,-0.48003 -9.1941,0.69201 -8.3096,2.12316 0.778,1.2587 -6.666,2.04098 -8.1699,0.85858 -0.869,-0.68325 -1.4572,-0.41815 -1.9726,0.88914 -0.6238,1.58208 -0.8138,1.43875 -1.2618,-0.95164 l -0.5275,-2.81426 -2.4736,2.31426 c -1.3605,1.27284 -3.1605,2.38284 -4,2.46665 -0.8395,0.0838 -4.0014,0.80769 -7.0264,1.60861 l -5.5,1.45621 -0.363,4.3914 -0.3631,4.39139 -1.1369,-3.72931 c -0.9072,-2.97565 -1.4401,-3.5314 -2.637,-2.75 -1.3166,0.85957 -1.3201,1.09493 -0.029,1.92494 2.4777,1.59269 0.2807,2.40128 -2.921,1.07509 -5.0173,-2.07825 -7.7865,0.0999 -4.4143,3.47214 1.2208,1.22078 1.3476,1.92381 0.5,2.77143 -0.8476,0.84761 -1.4401,0.83131 -2.3357,-0.0643 -1.4531,-1.45314 -4.8,-1.59259 -4.8,-0.2 0,1.57091 -4.156,1.16882 -6.0996,-0.59013 -2.3203,-2.0998 -5.7331,-0.98005 -6.9759,2.28879 -0.7818,2.05618 -1.4594,2.43224 -3.6338,2.01657 -1.4701,-0.28101 -3.5994,0.0805 -4.7318,0.80328 -1.5937,1.01725 -3.3634,1.08379 -7.8319,0.2945 -4.4749,-0.79042 -6.1251,-0.72749 -7.3389,0.27986 -1.3013,1.07997 -1.5155,1.05519 -1.2677,-0.14665 0.1641,-0.79542 -0.3399,-2.43584 -1.1199,-3.64538 -1.0661,-1.65329 -1.7417,-1.93063 -2.7216,-1.11732 -0.9343,0.77536 -1.003,1.44397 -0.2427,2.36013 1.6465,1.98388 -0.4226,2.67091 -5.6727,1.88361 -2.5469,-0.38193 -5.4705,-1.5343 -6.4971,-2.56083 -2.2152,-2.2152 -7.5617,-2.41212 -10.2489,-0.37748 -1.6351,1.23796 -2.2695,1.22527 -4.8255,-0.0965 -1.6187,-0.83703 -4.7602,-1.7409 -6.9812,-2.00862 -2.2211,-0.26771 -5.0577,-1.15473 -6.3038,-1.97116 -2.0126,-1.31871 -2.3313,-1.31297 -2.8549,0.0515 -0.3651,0.95152 -0.031,1.53589 0.8793,1.53589 1.7671,0 1.8281,0.97904 0.1868,3 -1.8086,2.22702 -4.7184,2.37301 -6.2786,0.31501 -0.7568,-0.99825 -1.3903,-1.31713 -1.4078,-0.70861 -0.018,0.63889 -3.0725,1.38901 -7.2279,1.77521 -5.84,0.54276 -7.3539,0.38703 -8.0329,-0.82631 -0.4672,-0.83483 -2.9987,-1.78193 -5.732,-2.14452 -4.702,-0.62374 -4.9772,-0.83962 -6.9672,-5.46546 -1.1394,-2.6489 -2.0718,-6.02416 -2.0718,-7.50064 l 0,-2.68451 -7.25,0.53202 c -21.9711,1.61231 -35.3923,3.06552 -36.5,3.95213 -0.7833,0.62702 -1.2618,3.66126 -1.2818,8.12807 -0.027,6.14186 -0.2155,6.88555 -1.3602,5.37756 -1.7658,-2.32617 -3.3267,-2.21164 -4.1247,0.30265 -0.4642,1.46278 -0.9977,1.76531 -1.8563,1.05275 -0.8053,-0.66841 -2.6097,-0.64329 -5.4425,0.0758 -3.4776,0.88271 -4.1312,1.41135 -3.6437,2.94725 0.7494,2.36115 -0.6806,2.44054 -2.1903,0.1216 z M 93.225489,503.98199 c -0.31923,-0.79773 -0.55619,-0.56078 -0.60417,0.60417 -0.0434,1.05416 0.19293,1.64479 0.52522,1.3125 0.33229,-0.33229 0.36782,-1.1948 0.0789,-1.91667 z m 421.316851,0.1875 c 0,-0.55 -0.45,-1 -1,-1 -0.55,0 -1,0.45 -1,1 0,0.55 0.45,1 1,1 0.55,0 1,-0.45 1,-1 z M 131.89289,312.69843 c 0.77144,-2.01033 -1.96574,-4.52894 -4.92195,-4.52894 -3.33962,0 -3.04123,1.41124 0.82143,3.88495 3.89766,2.49613 3.41866,2.4209 4.10052,0.64399 z M 371.1286,507.53674 c -9.30258,-0.7488 -17.13866,-1.58634 -17.41352,-1.8612 -0.50811,-0.50812 4.53683,-25.54892 5.30133,-26.31343 0.44192,-0.44191 38.52596,28.57356 38.52596,29.35216 0,0.67752 -7.54867,0.341 -26.41377,-1.17753 z m 133.58144,-4.3162 c -0.585,-1.67808 -0.6858,-3.05105 -0.2241,-3.05105 0.9161,0 2.4234,4.96632 1.7207,5.66905 -0.2382,0.23817 -0.9116,-0.93993 -1.4966,-2.618 z M 2.542369,499.16949 c 0,-0.55 0.45,-1 1,-1 0.55,0 1,0.45 1,1 0,0.55 -0.45,1 -1,1 -0.55,0 -1,-0.45 -1,-1 z M 382.77604,484.60657 c -11.67852,-8.5596 -21.23367,-15.97536 -21.23367,-16.47946 0,-0.5041 1.8,-8.58503 4,-17.95762 2.2,-9.37259 4,-17.25683 4,-17.52053 0,-0.26371 0.45546,-0.47947 1.01213,-0.47947 0.55667,0 8.63812,15.3 17.95877,34 9.32066,18.7 16.62035,34 16.22154,34 -0.3988,0 -10.28025,-7.00331 -21.95877,-15.56292 z m -133.49347,5.53841 c -2.21348,-2.21348 -3.77915,-4.26987 -3.47926,-4.56976 1.33105,-1.33105 11.73906,5.46546 11.73906,7.6657 0,2.29197 -4.5937,0.57016 -8.2598,-3.09594 z m 529.32687,0.14977 c -1.2108,-2.26243 -0.099,-3.45865 2.3427,-2.52152 1.97,0.75597 2.0198,1.79487 0.16,3.33838 -1.1423,0.94802 -1.6462,0.78355 -2.5027,-0.81686 z m -653.91688,-4.15276 c -0.10692,-3.93506 0.96708,-9.12077 3.72794,-18 2.13297,-6.85988 6.2386,-20.3475 9.12362,-29.9725 2.88501,-9.625 5.59515,-17.8828 6.02253,-18.35066 1.00432,-1.09948 1.28612,-0.0761 5.0053,18.17663 l 3.12282,15.32597 -5.3262,8.17403 c -12.23442,18.77596 -13.67386,20.53105 -17.11104,20.86327 -2.99232,0.28922 -3.25673,0.62266 -3.81497,4.81076 l -0.5998,4.5 -0.1502,-5.5275 z m 28.84981,4.0275 c 0,-0.55 1.37656,-1 3.05902,-1 1.7847,0 2.80156,0.41658 2.44098,1 -0.33992,0.55 -1.71648,1 -3.05902,1 -1.34254,0 -2.44098,-0.45 -2.44098,-1 z m 191.03041,-9.78138 c -0.0247,-7.52359 0.2664,-9.39529 1.53681,-9.88279 3.16909,-1.21609 3.68028,1.18316 1.87634,8.80649 -2.63994,11.15626 -3.37936,11.38942 -3.41315,1.0763 z m -158.83546,4.28138 c 0.0204,-1.65 0.2445,-2.20394 0.49804,-1.23097 0.25354,0.97297 0.23687,2.32297 -0.0371,3 -0.27393,0.67703 -0.48137,-0.11903 -0.46099,-1.76903 z m -46.44365,-1.08204 c -0.56722,-0.56721 10.23436,-18.58593 12.74481,-21.26034 1.02966,-1.09691 1.48121,-0.36546 2.4693,4 0.66507,2.93831 1.41745,6.10529 1.67195,7.03774 0.33208,1.21668 -1.45427,2.98138 -6.32664,6.25 -6.38022,4.28016 -9.19348,5.33855 -10.55942,3.9726 z m 31.91537,-1.08463 c -1.04686,-1.04685 -0.77896,-5.33333 0.33333,-5.33333 0.55,0 1,1.35 1,3 0,3.10687 -0.20356,3.4631 -1.33333,2.33333 z m -4.13575,-16.52213 c -1.05549,-3.05319 -4.53092,-17.77192 -4.53092,-19.18883 0,-0.84942 3.70847,-7.41194 8.24104,-14.58339 8.67906,-13.73201 10.50697,-15.18489 14.10397,-11.21024 2.3321,2.57693 2.05592,4.17126 -0.72257,4.17126 -1.30765,0 -2.93775,0.675 -3.62244,1.5 -1.01247,1.21995 -0.96484,1.5 0.25511,1.5 0.825,0 2.08137,0.7005 2.79193,1.55668 1.06252,1.28025 0.98033,2.87839 -0.46284,9 -1.92472,8.16423 -3.5842,9.73116 -3.5842,3.3843 0,-2.23246 -0.40028,-3.81163 -0.88951,-3.50927 -0.93591,0.57843 -1.6684,4.49676 -2.5198,13.47939 -0.28209,2.9761 -0.98039,5.8786 -1.55179,6.45 -0.57139,0.57139 -1.0389,1.97688 -1.0389,3.12329 0,2.57108 -5.74718,6.41505 -6.46908,4.32681 z m 167.96908,-1.38798 c -3.3,-0.71215 -6.53017,-1.3237 -7.17815,-1.35902 -1.23148,-0.0671 -5.75458,-10.9648 -4.904,-11.81539 0.39142,-0.39141 5.81156,3.54257 18.49882,13.42659 1.2675,0.98745 -1.10432,0.89424 -6.41667,-0.25218 z m -144.5,-1.42322 c 0,-0.55 0.47656,-1 1.05902,-1 0.58246,0 0.7809,0.45 0.44098,1 -0.33992,0.55 -0.81648,1 -1.05902,1 -0.24254,0 -0.44098,-0.45 -0.44098,-1 z m 11,-3 c 0,-0.55 0.47656,-1 1.05902,-1 0.58246,0 0.7809,0.45 0.44098,1 -0.33992,0.55 -0.81648,1 -1.05902,1 -0.24254,0 -0.44098,-0.45 -0.44098,-1 z m 134.39439,-10.12595 c -18.58695,-13.88426 -19.39439,-14.6277 -19.39439,-17.85723 0,-5.34739 1.17668,-5.81334 22.5,-8.9097 16.88407,-2.45174 20.2219,-2.69255 21.42429,-1.54566 1.2286,1.17189 0.90353,3.5112 -2.36607,17.02696 -4.98209,20.59478 -5.50584,22.41158 -6.46083,22.41158 -0.44473,0 -7.51108,-5.00668 -15.703,-11.12595 z m -26.89439,8.40641 c -2.75,-0.81005 -5.10823,-1.57528 -5.24052,-1.70049 -0.13228,-0.12522 0.92952,-3.70763 2.35957,-7.96092 1.43004,-4.25329 2.78058,-7.55275 3.0012,-7.33214 1.02274,1.02274 6.16209,17.72632 5.5608,18.07334 -0.37458,0.21617 -2.93105,-0.26973 -5.68105,-1.07979 z m -102.96878,-0.57359 c -0.42806,-0.98622 -0.4977,-2.07372 -0.15476,-2.41666 1.01549,-1.0155 1.83409,0.41094 1.3667,2.38152 -0.41435,1.74695 -0.46826,1.74851 -1.21194,0.0351 z m -90.53209,-4.7902 c -0.002,-10.99254 5.37294,-75.62207 6.37247,-76.62161 1.101,-1.10099 17.77332,2.91901 18.35114,4.4248 0.30144,0.78553 -1.24771,6.90741 -3.44254,13.60418 -15.01351,45.80862 -20.47712,62.20622 -20.85164,62.58074 -0.23571,0.2357 -0.42895,-1.55895 -0.42943,-3.98811 z m 105.43024,1.96905 c -0.41153,-0.66586 -2.2462,-0.90537 -4.55902,-0.59516 -3.58201,0.48045 -3.87035,0.33658 -3.87035,-1.93117 0,-2.46761 3.98161,-7.35939 5.99008,-7.35939 1.00891,0 5.00992,8.05238 5.00992,10.08291 0,1.28061 -1.73978,1.14715 -2.57063,-0.19719 z m 54.82063,-2.60912 c -3.94762,-0.48989 -4.3436,-2.28203 -0.5,-2.26295 3.75192,0.0186 7.25,1.03331 7.25,2.10298 0,0.88712 -0.74781,0.90484 -6.75,0.15997 z m 9.66453,-1.4363 c -1.62833,-3.04257 -1.30067,-24.84645 0.39925,-26.56755 0.95537,-0.96727 2.26857,-0.43006 6.19918,2.536 2.74287,2.06979 5.09969,4.64705 5.23737,5.72725 0.13769,1.0802 -1.2194,6.014 -3.01574,10.964 -2.61809,7.21438 -3.69594,9.06164 -5.43268,9.31068 -1.43453,0.20571 -2.57908,-0.46005 -3.38738,-1.97038 z m -42.4723,-4.5903 c -3.38946,-11.46644 -4.18943,-15.03936 -3.57166,-15.95206 1.39549,-2.06173 10.3276,-7.43587 11.56781,-6.95996 1.79898,0.69033 0.89898,21.97809 -1.0955,25.91202 -2.38089,4.69607 -4.95673,3.57625 -6.90065,-3 z m -82.77601,-9 c -0.2485,-0.4125 -2.11688,-7.93566 -4.15195,-16.71814 -3.23566,-13.96365 -3.5562,-16.44854 -2.55353,-19.79515 1.03929,-3.46886 3.80716,-5.73671 7.00154,-5.73671 1.01339,0 13.08855,18.47839 13.76465,21.06377 0.30266,1.15739 -1.9702,5.58808 -6.09961,11.89052 -6.60013,10.07331 -7.12409,10.68512 -7.9611,9.29571 z m 36.33378,-0.30902 c 0,-0.58246 0.45,-0.7809 1,-0.44098 0.55,0.33992 1,0.81648 1,1.05902 0,0.24254 -0.45,0.44098 -1,0.44098 -0.55,0 -1,-0.47656 -1,-1.05902 z m 114.51277,-7.92031 c -0.87379,-1.41382 1.29751,-5.02067 3.02241,-5.02067 1.7659,0 1.93838,3.12644 0.26482,4.8 -1.45577,1.45577 -2.48134,1.52461 -3.28723,0.22067 z m -103.87329,-0.71452 c -0.95301,-0.95302 -0.77257,-3.30615 0.25353,-3.30615 1.22681,0 2.21165,2.81728 1.2028,3.44079 -0.44927,0.27766 -1.10462,0.21707 -1.45633,-0.13464 z m 47.43081,-2.55615 c -0.0387,-1.5125 0.37971,-2.75 0.92971,-2.75 1.17371,0 1.17371,0.76862 0,3.5 -0.76156,1.77225 -0.86743,1.68684 -0.92971,-0.75 z m -51.88288,-2.96259 c -2.12268,-2.12268 -1.32597,-3.78741 1.81259,-3.78741 3.49141,0 3.64485,0.39146 1.18741,3.02922 -1.39912,1.50177 -2.08346,1.67473 -3,0.75819 z m 94.6513,-2.07115 c -1.4637,-1.21894 -4.5012,-3.70417 -6.75,-5.52272 -6.76382,-5.46978 -5.75578,-6.60635 5.13043,-5.78455 5.07053,0.38278 9.44604,0.92286 9.72337,1.20019 0.7302,0.7302 -3.36435,11.70441 -4.49233,12.04035 -0.5226,0.15564 -2.14776,-0.71433 -3.61147,-1.93327 z m -61.81083,-1.66417 c -1.50742,-2.81664 -0.65813,-3.85659 3.7572,-4.60068 2.04321,-0.34432 4.50242,-0.84208 5.46492,-1.10612 2.66418,-0.73085 2.07678,0.94284 -1.00632,2.86733 -1.50903,0.94194 -3.72283,2.43718 -4.91956,3.32276 -2.039,1.50884 -2.24636,1.47844 -3.29624,-0.48329 z m 80.97212,-1.86096 c 0,-0.99488 0.59093,-2.61702 1.31319,-3.60476 1.22733,-1.67847 2.04457,-1.71238 12.5,-0.51857 6.15274,0.70253 11.18681,1.56686 11.18681,1.92073 0,0.56065 -20.44411,4.01147 -23.76567,4.01147 -0.67888,0 -1.23433,-0.81399 -1.23433,-1.80887 z m -135.25,-1.85341 c 0.6875,-0.27741 1.8125,-0.27741 2.5,0 0.6875,0.27741 0.125,0.50439 -1.25,0.50439 -1.375,0 -1.9375,-0.22698 -1.25,-0.50439 z m 154.25,-5.35443 c -7.975,-0.98844 -14.6125,-1.83904 -14.75,-1.89023 -1.15761,-0.43092 16.42262,-54.8758 19.69184,-60.98439 1.01988,-1.90567 6.03885,-3.4951 7.20511,-2.28174 0.35582,0.37019 2.30154,8.54807 4.32383,18.17307 2.02229,9.625 5.00127,23.75908 6.61996,31.40907 1.61868,7.65 2.68013,14.7375 2.35877,15.75 -0.74151,2.3363 -5.44331,2.30383 -25.44951,-0.17578 z m -150,0.0167 c 0,-0.55 0.45,-1 1,-1 0.55,0 1,0.45 1,1 0,0.55 -0.45,1 -1,1 -0.55,0 -1,-0.45 -1,-1 z m -7.41655,-4.64313 c -0.34679,-0.90372 -0.42487,-1.84878 -0.17352,-2.10013 0.79473,-0.79474 2.59007,0.80111 2.59007,2.30228 0,1.96152 -1.63888,1.82443 -2.41655,-0.20215 z m 10.80956,0.0613 c 0.33385,-0.86998 0.60699,-1.76998 0.60699,-2 0,-0.23001 0.45,-0.41821 1,-0.41821 0.55,0 1,0.9 1,2 0,1.17029 -0.66667,2 -1.60699,2 -1.05452,0 -1.39831,-0.5438 -1,-1.58179 z m 112.10699,0.62571 -3,-0.71945 3,-0.74576 c 1.65,-0.41016 3.60311,-0.93463 4.34024,-1.16548 1.94086,-0.60781 3.16026,0.4219 2.5091,2.1188 -0.59897,1.56088 -2.0294,1.66779 -6.84934,0.51189 z m -68.31955,-5.21559 c 0.36923,-2.50933 1.70789,-3.18246 3.75525,-1.88829 1.18984,0.75212 1.21168,1.17745 0.12755,2.48374 -1.94511,2.34372 -4.26298,1.98826 -3.8828,-0.59545 z m 52.81955,1.29415 c 0,-0.48265 0.675,-1.43775 1.5,-2.12244 2.23137,-1.85187 1.83936,-2.76655 -1.5,-3.5 -2.95615,-0.64928 -3,-0.75344 -3,-7.12597 0,-6.20537 0.12589,-6.53598 3.11135,-8.17054 12.80941,-7.01325 23.83768,-16.26794 32.01288,-26.86451 4.67843,-6.06411 8.50952,-7.37715 7.55396,-2.58898 -1.69441,8.49047 -3.16829,13.42499 -8.87986,29.72961 l -6.29833,17.97962 -9,1.71056 c -10.11817,1.92308 -15.5,2.25385 -15.5,0.95265 z m -109.5805,-4.06472 c -1.43488,-2.16826 -2.33078,-4.39226 -1.99088,-4.94222 0.3399,-0.54997 2.5651,-1.29193 4.94489,-1.6488 3.73876,-0.56066 4.69651,-0.30631 7.0462,1.87131 2.63741,2.44427 2.66858,2.59761 1.03479,5.09108 -2.02495,3.09046 -3.10532,3.24644 -3.9545,0.57091 -0.92328,-2.909 -2.65266,-2.45643 -1.91064,0.5 1.00353,3.99838 -2.15197,3.11807 -5.16986,-1.44228 z m 67.3805,2.74228 c 0.93333,-0.93333 1.46667,-0.93333 2.4,0 0.93333,0.93333 0.66667,1.2 -1.2,1.2 -1.86667,0 -2.13333,-0.26667 -1.2,-1.2 z m -97.13333,-0.46667 c -2.45198,-2.45198 1.31571,-6.81301 5.30991,-6.14612 1.72018,0.2872 1.76081,0.57863 0.49669,3.56279 -1.29366,3.05392 -4.09134,4.2986 -5.8066,2.58333 z m 44.33333,-2.97969 c 0,-2.75094 -2.75406,-8.11662 -4.73506,-9.22525 -1.27868,-0.71558 -0.95522,-1.03751 1.60818,-1.60052 4.72521,-1.03783 6.46017,0.82282 5.84622,6.26977 -0.52377,4.6469 -2.71934,8.32537 -2.71934,4.556 z m 80.25,0.15549 c -1.7875,-0.77692 -3.25,-2.01372 -3.25,-2.74845 0,-1.36207 8.98257,-10.76068 10.28435,-10.76068 0.86908,0 0.95978,11.20022 0.10866,13.41821 -0.7402,1.92893 -2.85235,1.95582 -7.14301,0.0909 z m -54.73313,-2.8145 c -2.45054,-5.86497 -2.97172,-9.01174 -1.408,-8.50116 1.63935,0.53526 3.41445,4.01252 4.36802,8.55653 0.91306,4.35098 -1.13493,4.31267 -2.96002,-0.0554 z m 23.48313,2.30537 c -0.825,-0.53316 -2.9625,-0.97627 -4.75,-0.98469 -1.7875,-0.008 -3.25,-0.43875 -3.25,-0.95629 0,-1.81544 1.81837,-2.03457 4.64592,-0.55987 1.56974,0.81869 3.39002,1.4913 4.04506,1.49469 0.65504,0.003 1.4691,0.45616 1.80902,1.00616 0.78218,1.2656 -0.54163,1.2656 -2.5,0 z m 74.09174,-0.5 c -0.0363,-1.1 1.01771,-4.25 2.34225,-7 1.50328,-3.12108 2.43307,-4.24843 2.47427,-3 0.0363,1.1 -1.01771,4.25 -2.34225,7 -1.50328,3.12108 -2.43307,4.24843 -2.47427,3 z m -71.94602,-10.06325 c -4.62857,-3.7201 -8.92946,-6.43246 -9.90255,-6.24506 -2.13439,0.41104 -2.90662,3.78024 -1.11959,4.88469 1.01944,0.63005 0.89495,0.97928 -0.54621,1.5323 -1.26445,0.48522 -2.30381,0.11833 -3.22198,-1.13733 -2.03016,-2.77641 -1.70597,-5.47135 0.65818,-5.47135 1.10746,0 2.79496,-0.41715 3.75,-0.927 0.95504,-0.50985 2.51835,-1.16859 3.47403,-1.46386 1.6065,-0.49635 1.57468,-0.82251 -0.42178,-4.323 -2.9649,-5.19849 -4.92179,-7.36497 -7.56582,-8.37615 -2.00779,-0.76786 -2.25,-1.5462 -2.25,-7.23025 0,-5.05201 -0.40465,-6.73597 -1.956,-8.13992 -2.12469,-1.92282 -3.62137,-9.10326 -2.6796,-12.85557 0.32321,-1.28775 1.68881,-2.84309 3.03467,-3.45631 1.34586,-0.61321 2.59415,-2.14826 2.77397,-3.41122 0.17983,-1.26296 1.11446,-2.44638 2.07696,-2.62983 2.93293,-0.559 2.1815,4.11797 -1.04486,6.50332 -3.24788,2.40126 -5.57894,8.53599 -3.88655,10.22838 0.59477,0.59477 2.76589,1.08141 4.82471,1.08141 4.11865,0 6.8567,-2.65755 6.8567,-6.65512 0,-1.33185 0.79477,-2.46235 2,-2.84488 1.1,-0.34913 2,-0.98832 2,-1.42042 0,-0.43211 -4.2238,-4.87179 -9.38621,-9.86595 -7.1867,-6.95247 -10.24398,-9.24123 -13.04663,-9.76701 -2.01323,-0.37768 -3.83555,-0.51157 -4.0496,-0.29752 -0.21405,0.21405 -0.13381,2.29307 0.1783,4.62004 0.44181,3.29396 0.989,4.23086 2.47099,4.23086 1.57207,0 1.72327,0.3368 0.86833,1.93426 -0.56935,1.06384 -1.03518,3.40384 -1.03518,5.2 0,1.84867 -0.36428,2.85352 -0.8395,2.31574 -1.1836,-1.33938 -6.81356,-19.77443 -8.21493,-26.89941 -0.64359,-3.27217 -1.5376,-6.87217 -1.98669,-8 -0.44909,-1.12782 -2.03491,-5.42559 -3.52404,-9.55059 -1.48913,-4.125 -3.79375,-8.96209 -5.12138,-10.74909 -1.73207,-2.3314 -2.15581,-3.71021 -1.50022,-4.88167 1.16194,-2.07628 -0.80211,-7.58749 -2.47519,-6.94547 -0.91203,0.34998 -1.1299,-2.32066 -0.88832,-10.8893 0.17605,-6.24416 0.58844,-11.78722 0.91643,-12.31791 0.9874,-1.59764 -8.09652,-10.20528 -10.88079,-10.31031 -11.24143,-0.42404 -13.29034,-0.18991 -16.68199,1.90625 -3.73843,2.31048 -6.80338,2.85077 -6.80338,1.19932 0,-0.5435 -1.76092,-1.26977 -3.91316,-1.61392 -2.72982,-0.43652 -4.06827,-1.21889 -4.42609,-2.5872 -0.30171,-1.15375 -1.264,-1.883 -2.33684,-1.77092 -3.76011,0.39279 -5.10535,-0.096 -5.61366,-2.03978 -0.3139,-1.20034 -1.36401,-2 -2.62642,-2 -1.15687,0 -2.8865,-0.95022 -3.84362,-2.11159 -3.45318,-4.19012 -4.42116,-4.88841 -6.77645,-4.88841 -1.3217,0 -2.84535,-0.84449 -3.40274,-1.88598 -1.399,-2.61405 -8.02855,-6.35577 -10.23759,-5.7781 -1.00289,0.26226 -1.82343,0.0443 -1.82343,-0.4844 0,-2.27065 -4.16922,-9.85152 -5.418,-9.85152 -0.75241,0 -1.64612,-0.5625 -1.98602,-1.25 -2.22032,-4.49094 -4.504131,-7.25104 -6.005171,-7.25758 -0.95698,-0.004 -2.22849,-0.90416 -2.82558,-2 -0.59709,-1.09583 -2.42979,-3.29715 -4.07266,-4.89183 -2.43448,-2.36305 -2.78433,-3.22401 -1.89122,-4.6541 0.6027,-0.96508 0.88686,-3.93535 0.63146,-6.60059 -1.31687,-13.74208 -1.56129,-14.61756 -3.83717,-13.74423 -3.4233,1.31365 -1.94596,-13.08497 2.16774,-21.12747 12.533031,-24.50272 54.347621,-45.623882 104.736621,-52.903992 6.05,-0.8741 14.08294,-2.04674 17.85097,-2.60588 3.76803,-0.55915 18.28053,-1.3019 32.25,-1.65057 22.88683,-0.57123 25.39903,-0.47558 25.39903,0.96714 0,0.88059 -0.5326,1.93023 -1.18355,2.33254 -1.80662,1.11656 -17.48481,0.63442 -19.80844,-0.60915 -1.12714,-0.60323 -2.60254,-0.73847 -3.27868,-0.30053 -0.67613,0.43793 -4.11901,1.02124 -7.65083,1.29624 -4.07835,0.31756 -6.58092,0.98354 -6.85839,1.82516 -0.33739,1.02339 0.99728,1.26663 5.86088,1.06813 3.86498,-0.15774 6.43773,0.16288 6.6601,0.82999 0.40452,1.21356 -9.84422,18.380282 -13.29947,22.276722 -1.21931,1.375 -2.52281,3.5125 -2.89666,4.75 -0.37386,1.2375 -1.27735,2.25 -2.00777,2.25 -1.72973,0 -1.14754,-27.559642 0.62736,-29.698272 1.94129,-2.3391 -0.40173,-3.69391 -4.32249,-2.49939 -5.23526,1.595 -17.61965,2.36654 -18.37477,1.14474 -0.43883,-0.71005 -1.36607,-0.5882 -2.83172,0.37214 -1.19859,0.78534 -4.04041,1.74233 -6.31517,2.12665 -2.27477,0.38432 -4.96494,1.36452 -5.97817,2.17823 -1.7715,1.42266 -1.76544,1.46163 0.15777,1.015 10.73627,-2.49328 12.08055,-1.50489 8.24592,6.06287 -1.33716,2.638922 -3.90396,7.823542 -5.704,11.521392 -1.80003,3.69785 -3.89089,7.23633 -4.64635,7.86331 -0.75545,0.62697 -1.11476,1.55867 -0.79847,2.07044 0.89244,1.444 -1.60326,3.84549 -3.96954,3.8197 -1.60925,-0.0175 -3.95468,-2.86158 -9.62756,-11.67423 -4.33445,-6.73344 -7.5,-12.729032 -7.5,-14.205072 0,-2.97324 -2.18884,-3.77674 -4.89595,-1.79725 -1.48683,1.0872 -1.64281,1.75881 -0.782,3.36724 0.5914,1.105032 0.84241,3.094412 0.55781,4.420832 -0.44686,2.08259 -0.36484,2.17288 0.60103,0.66167 0.61517,-0.9625 1.65863,-1.73985 2.3188,-1.72745 0.66017,0.0124 4.22212,5.10347 7.91545,11.31347 8.08262,13.5902 9.80967,15.39302 13.50207,14.09447 1.87158,-0.6582 2.92004,-1.96801 3.548,-4.43239 0.49024,-1.92395 1.30613,-3.9256 1.81307,-4.4481 0.50695,-0.5225 0.92912,-1.8725 0.93817,-3 0.009,-1.1275 1.09212,-3.85 2.40682,-6.05 1.31471,-2.2 3.75866,-6.8125 5.43101,-10.25 1.67235,-3.437502 3.50273,-6.250002 4.0675,-6.250002 0.56477,0 1.78011,1.4625 2.70075,3.25 0.92064,1.7875 2.68778,4.600002 3.92698,6.250002 3.39251,4.51717 8.45049,13.4173 8.45049,14.86969 0,0.70493 1.04629,2.26462 2.32508,3.46598 3.07978,2.89331 8.67492,2.08809 8.67492,-1.24844 0,-1.18953 1.33171,-3.72078 2.95936,-5.625 1.62765,-1.90423 2.97765,-3.92027 3,-4.4801 0.0223,-0.55982 1.27119,-2.80982 2.7752,-4.99999 2.96372,-4.31584 5.60087,-8.659562 7.45002,-12.271132 0.64459,-1.25894 1.80765,-2.15894 2.58458,-2 1.34279,0.27471 12.23084,16.998202 12.23084,18.785942 0,0.46728 1.17059,2.24077 2.60132,3.94109 1.43073,1.70033 2.34985,3.74683 2.04249,4.54779 -0.93893,2.44683 2.24138,4.65045 6.23057,4.31712 3.07111,-0.25662 3.67201,-0.70274 3.92892,-2.91692 0.16681,-1.43768 1.62931,-3.88437 3.25,-5.43709 1.62068,-1.55272 2.9467,-3.19574 2.9467,-3.65115 0,-1.13136 13.28975,-18.797792 14.14082,-18.797792 0.82892,0 10.85918,18.605062 10.85918,20.142612 0,0.60135 1.38488,2.67065 3.07752,4.59846 2.36717,2.69606 2.93083,4.08954 2.44201,6.03716 -0.75238,2.99771 0.66694,4.18455 5.03047,4.20646 3.26511,0.0164 5.45,-1.50599 5.45,-3.79744 0,-0.77702 1.14867,-2.82452 2.5526,-4.55 1.40394,-1.72549 5.35525,-6.73725 8.78071,-11.13725 3.42546,-4.4 6.82694,-8.000002 7.55886,-8.000002 0.73191,0 2.2223,2.389992 3.31196,5.311082 2.11826,5.67847 6.76383,14.35819 6.78382,12.6748 0.0131,-1.09903 -2.77849,-8.74076 -5.37133,-14.70376 -2.81141,-6.465642 -2.70491,-6.520912 8.13338,-4.221602 1.82957,0.38814 3.25,0.28338 3.25,-0.23971 0,-1.30706 -12.68795,-5.46581 -17.5,-5.736 -9.19189,-0.51612 -18.51654,-2.7472 -19.54966,-4.6776 -1.28253,-2.39643 -0.40799,-2.42804 10.44988,-0.37766 57.09198,10.78115 95.35705,27.114592 122.86345,52.444252 10.2486,9.43757 16.2187,19.39903 18.6525,31.1226 1.2582,6.06033 0.1351,14.65028 -2.4266,18.55985 -0.8193,1.25036 -1.4896,2.98595 -1.4896,3.85687 0,0.87092 -0.9017,3.44997 -2.0039,5.73122 -1.3413,2.77607 -1.672,4.47974 -1,5.1517 1.2747,1.27476 1.3162,5.60396 0.054,5.60396 -0.5227,0 -1.3634,-0.73818 -1.8683,-1.6404 -1.1166,-1.99523 -2.9773,-1.02657 -4.1987,2.18574 -0.4916,1.29309 -3.8494,4.67379 -7.4619,7.51268 -3.6124,2.83889 -7.02322,6.0122 -7.57959,7.0518 -0.55638,1.0396 -1.6381,1.89018 -2.40383,1.89018 -0.76573,0 -2.27716,1.125 -3.35874,2.5 -1.08158,1.375 -2.88768,2.5 -4.01356,2.5 -1.12589,0 -2.32518,0.45 -2.6651,1 -0.33992,0.55 -1.37898,1.00106 -2.30902,1.00235 -2.19681,0.003 -8.18445,5.12654 -8.21322,7.02788 -0.0147,0.96975 -0.64839,0.65539 -1.86278,-0.92405 -1.99633,-2.59636 -4.11503,-2.13813 -4.11503,0.88997 0,1.59366 -0.53872,1.79069 -3.55699,1.30089 -3.03143,-0.49193 -3.63839,-0.26591 -4.10797,1.52975 -0.63281,2.41988 -3.42543,3.59668 -6.33997,2.67165 -1.3325,-0.42292 -2.20684,-0.11014 -2.60698,0.93261 -0.33114,0.86292 -1.45392,1.56895 -2.49508,1.56895 -1.04115,0 -1.89301,0.34015 -1.89301,0.75589 0,1.24923 -5.95759,3.48846 -7.91757,2.97592 -3.01568,-0.78862 -9.08243,6.23326 -9.08243,10.51233 0,1.93104 0.66602,4.06371 1.48003,4.73929 1.28524,1.06665 1.19748,1.45712 -0.66675,2.96669 -2.93277,2.37481 -1.79102,5.04988 2.15534,5.04988 1.82954,0 3.03138,0.51838 3.03138,1.3075 0,1.16261 -6.21077,6.3271 -11.16158,9.28128 -1.00356,0.59883 -2.65068,1.83633 -3.66027,2.75 -2.05679,1.86136 -4.74309,2.17418 -5.67815,0.66122 -1.21806,-1.97086 -2.71388,-0.98829 -2.11684,1.39051 0.46235,1.84212 0.009,2.77807 -1.97835,4.0799 -1.41809,0.92917 -2.65179,1.54094 -2.74157,1.35949 -0.0898,-0.18144 -0.95531,-1.9049 -1.9234,-3.8299 -1.69801,-3.37642 -1.68919,-3.68576 0.25,-8.76073 2.7095,-7.09093 2.59607,-9.65128 -0.48984,-11.05732 -1.375,-0.62649 -2.5,-1.59872 -2.5,-2.16051 0,-1.56321 3.86251,-1.21573 6.98424,0.62832 1.77163,1.04653 3.47347,1.36268 4.65429,0.86462 1.02381,-0.43183 2.98647,-0.83672 4.36147,-0.89976 3.18273,-0.14592 3.28176,-2.66581 0.16582,-4.21927 -3.55324,-1.77148 -4.92385,-3.39535 -2.86582,-3.39535 0.935,0 1.7,-0.3949 1.7,-0.87756 0,-1.59394 -2.71784,-3.16794 -4.37325,-2.5327 -1.05635,0.40536 -1.62675,0.0988 -1.62675,-0.87434 0,-2.89434 -8.28667,-3.61011 -45.64707,-3.94282 -15.53352,-0.13833 -21.54157,0.13909 -22.63321,1.04507 -1.1981,0.99433 -1.59962,0.93771 -2.07155,-0.29213 -0.49101,-1.27954 -3.21071,-1.52934 -16.86679,-1.5492 -8.95476,-0.013 -21.68138,-0.45806 -28.28138,-0.98897 -6.6,-0.53091 -18.59612,-1.25916 -26.65804,-1.61834 l -14.65804,-0.65306 -1.9553,4.047 -1.9553,4.04699 2.12429,2.66411 2.12428,2.66411 17.48906,0.18092 c 16.87163,0.17453 17.6241,0.0964 21.31437,-2.2123 3.57416,-2.23608 4.39489,-2.34394 12.5,-1.64281 4.77107,0.41272 12.27468,0.68286 16.67468,0.60032 4.4,-0.0825 10.14588,0.2627 12.76862,0.76719 2.9656,0.57045 4.98944,0.55999 5.35263,-0.0277 0.9728,-1.57403 8.62789,0.21008 12.67014,2.95293 3.65885,2.48269 4.52927,2.60117 24.89779,3.38907 11.60852,0.44904 21.3162,1.02623 21.57261,1.28265 0.25642,0.25642 -0.48508,1.6756 -1.64779,3.15374 -1.1627,1.47813 -2.114,3.46403 -2.114,4.41311 0,0.94908 -1.125,3.38338 -2.5,5.40955 -1.375,2.02618 -2.50001,4.00147 -2.50003,4.38955 -5e-5,1.28498 -6.83919,6.18792 -7.18489,5.15082 -0.18647,-0.55939 -2.12279,0.80966 -4.30293,3.04233 -3.44231,3.52524 -3.80529,4.31339 -2.75851,5.98956 0.68736,1.10064 0.81413,2.17198 0.29498,2.49283 -0.50073,0.30947 -1.23174,0.0428 -1.62445,-0.59265 -0.76845,-1.24337 -12.75196,10.98374 -15.42417,15.73773 -0.825,1.46771 -2.625,3.39225 -4,4.27677 l -2.5,1.6082 1.78679,-2.5 c 0.98273,-1.375 2.04771,-3.2875 2.36663,-4.25 0.31891,-0.9625 0.97736,-1.75 1.46321,-1.75 0.48585,0 0.88337,-0.40787 0.88337,-0.90638 0,-0.49851 -0.79671,-0.69804 -1.77047,-0.44339 -0.97376,0.25464 -3.69204,0.0312 -6.04062,-0.49645 -4.01562,-0.90225 -4.36799,-0.80132 -5.91167,1.69339 -0.90284,1.45906 -2.745,3.86554 -4.0937,5.34774 l -2.45217,2.69492 -1.7703,-2.18623 c -1.64889,-2.03629 -1.89685,-2.07444 -3.61568,-0.55621 -2.31839,2.04785 -8.34539,3.44318 -8.34539,1.9321 0,-0.59371 -0.45,-1.07946 -1,-1.07946 -0.55,0 -1.01368,0.7875 -1.03041,1.75 -0.029,1.66667 -0.0789,1.66667 -1.04969,0 -0.5606,-0.9625 -1.87456,-1.75 -2.9199,-1.75 -1.04534,0 -2.34495,-0.7875 -2.88803,-1.75 -1.12097,-1.98671 -2.65163,-0.96096 -3.35751,2.25 -0.40243,1.83056 -0.52827,1.7864 -1.48534,-0.52122 -1.20723,-2.91081 -3.79718,-4.35468 -10.66739,-5.94698 -3.22079,-0.74648 -5.2361,-0.79743 -5.88475,-0.14878 -1.62938,1.62938 -5.41559,-1.60684 -12.05199,-10.30127 -12.09943,-15.85161 -13.19401,-18.06788 -10.16499,-20.58175 2.21583,-1.83897 1.92906,-4.27095 -0.41584,-3.52671 -3.42576,1.08729 -3.22408,-1.29746 0.38766,-4.58407 6.22122,-5.66118 3.52693,-7.03177 -2.8617,-1.45575 -2.53714,2.21441 -3.68255,3.93541 -3.29368,4.94879 0.80203,2.09004 -1.04427,3.08851 -2.88547,1.56045 -1.30222,-1.08075 -1.28046,-1.45154 0.17992,-3.06524 1.50507,-1.66309 1.51195,-1.8931 0.0731,-2.44523 -0.87353,-0.33521 -1.97955,-0.36762 -2.45782,-0.072 -0.47828,0.29559 -2.15015,-0.12693 -3.71528,-0.93893 -4.93334,-2.55945 -4.90108,-1.04411 0.12,5.63679 2.678,3.56326 6.14298,8.42825 7.69996,10.81107 2.5196,3.85601 7.11519,10.04139 24.61545,33.13086 2.7096,3.575 6.3855,8.1749 8.16866,10.22199 1.78316,2.0471 3.77233,4.9721 4.42037,6.5 0.64804,1.52791 3.34109,5.17577 5.98456,8.10636 4.76955,5.28759 4.80697,5.38319 4.8932,12.5 l 0.0869,7.17162 3.18161,-0.31819 c 6.99852,-0.69992 8.83868,-1.68132 8.52698,-4.54759 -0.2293,-2.10853 0.36817,-3.04787 2.80311,-4.40696 1.86814,-1.04274 3.31726,-2.7976 3.65657,-4.42806 0.52689,-2.53184 0.99412,-2.74337 7.46908,-3.38139 3.79887,-0.37433 7.15129,-1.07582 7.44983,-1.55886 0.29853,-0.48305 -0.38645,-2.0596 -1.5222,-3.50346 -2.84955,-3.62263 -2.62894,-5.35235 0.68502,-5.3708 1.5125,-0.008 3.35619,-0.39949 4.09709,-0.86903 1.84057,-1.16645 9.15291,0.79801 9.15291,2.45893 0,1.9696 -2.19171,6.42541 -3.16052,6.42541 -0.46171,0 -0.83948,0.675 -0.83948,1.5 0,0.93725 -0.94719,1.5 -2.52475,1.5 -1.72291,0 -2.80574,0.73907 -3.40951,2.32708 -0.48661,1.2799 -3.84823,4.3174 -7.47027,6.75 -3.62203,2.43261 -6.58775,4.98542 -6.59049,5.67292 -0.003,0.6875 -0.91943,1.25 -2.0371,1.25 -1.11766,0 -3.67368,0.68589 -5.68004,1.5242 -5.81643,2.43026 -17.55715,4.60649 -18.69785,3.46579 -1.39316,-1.39316 -9.94449,-1.23549 -11.38999,0.21001 -4.44612,4.44612 2.16114,7.88531 15.61208,8.12638 9.11217,0.1633 10.13364,-0.0315 17.18792,-3.27764 11.83408,-5.44567 17.7959,-9.65305 26.7015,-18.84378 8.39544,-8.66424 17.99395,-21.83848 20.79445,-28.54101 1.61389,-3.86259 2.13383,-4.18413 4.42297,-2.73522 1.21052,0.7662 1.15988,1.57642 -0.34482,5.5164 -1.88234,4.92885 -1.55493,7.86848 0.77673,6.97374 2.28515,-0.8769 5.08907,-9.1839 3.67501,-10.88774 -1.4103,-1.6993 -0.43157,-3.81479 3.9202,-8.47337 3.40932,-3.64969 3.30182,-4.52775 -0.67657,-5.52626 -3.16038,-0.79321 -4.23251,-2.11538 -4.25416,-5.24632 -0.0287,-4.15647 9.59336,-6.57315 15.01286,-3.77061 3.06172,1.58327 3.18828,1.88103 2.74783,6.46482 -0.26409,2.74845 0.0541,5.76886 0.74337,7.0568 0.80453,1.50327 0.92641,3.45031 0.36671,5.85776 -1.26603,5.44553 -0.98725,12.3051 0.61392,15.10605 0.78602,1.375 1.43139,4.525 1.43416,7 0.006,5.32494 -1.33593,3.76226 -2.42122,-2.81963 -0.83322,-5.05319 -1.74141,-5.58848 -7.34537,-4.32935 -4.54965,1.02223 -4.99583,0.45767 -3.25563,-4.11939 0.50156,-1.31922 0.57332,-2.94647 0.15945,-3.61612 -0.84074,-1.36034 -4.14758,5.49305 -8.96232,18.5743 -1.65791,4.5044 -4.16069,10.45194 -5.56173,13.21676 -1.40103,2.76482 -2.54734,5.72181 -2.54734,6.57108 0,2.36432 -4.3271,11.04106 -4.79947,9.62395 -0.22854,-0.68564 0.69454,-4.47649 2.05131,-8.42411 4.03127,-11.72933 4.74816,-14.21139 4.74816,-16.43947 0,-1.16599 0.45,-2.3981 1,-2.73802 0.55,-0.33992 1,-2.61648 1,-5.05902 0,-3.84481 -0.28191,-4.44098 -2.1,-4.44098 -2.22727,0 -4.86881,2.46608 -14.19042,13.24786 -6.99347,8.08895 -14.82444,14.22224 -24.20958,18.96116 -7.16902,3.61992 -16.30065,6.79098 -19.55582,6.79098 -1.00438,0 -2.08286,0.41538 -2.39663,0.92306 -0.31377,0.50769 -1.94573,1.22512 -3.62659,1.5943 -1.68085,0.36918 -3.27976,1.25407 -3.55311,1.96643 -0.2793,0.72783 -1.35923,1.06972 -2.46531,0.78047 -1.08257,-0.2831 -2.77969,0.21958 -3.77139,1.11705 -1.69222,1.53144 -2.30624,1.22738 -9.98543,-4.94456 z m 7.13279,-22.59779 c 1.61542,-2.17199 1.79374,-3.19293 0.97028,-5.55513 -0.74549,-2.13852 -0.65446,-3.57054 0.34871,-5.48515 1.15793,-2.20998 1.14395,-2.76837 -0.095,-3.79663 -1.18185,-0.98085 -1.65249,-0.76719 -2.52488,1.14619 -0.58974,1.29347 -2.28105,2.92152 -3.75846,3.61789 -2.40801,1.135 -2.87056,1.03143 -4.46632,-1 l -1.78013,-2.26613 -2.03546,2.42145 c -1.4757,1.75553 -1.9532,3.54307 -1.73634,6.5 0.273,3.72239 0.52479,4.05568 2.88339,3.81668 1.59256,-0.16138 3.29826,0.52708 4.44483,1.79402 2.37663,2.62616 5.23623,2.18586 7.74941,-1.19319 z m -5.65971,-18.37992 c 1.35407,-2.06657 1.44904,-3.01473 0.5087,-5.07855 -1.43535,-3.15025 -3.04274,-2.68979 -5.54064,1.58721 -1.88162,3.22177 -1.88337,3.34231 -0.068,4.66972 2.57168,1.88046 3.18924,1.73777 5.09998,-1.17838 z m 68.43138,-43.09102 c 0.94222,-2.47822 1.10765,-2.53516 2.83186,-0.97477 1.53497,1.38913 2.01475,1.43603 2.9659,0.28997 1.25762,-1.51534 0.5673,-2.68322 -1.58604,-2.68322 -0.77261,0 -2.07976,-0.675 -2.90476,-1.5 -0.825,-0.825 -3.04285,-1.5 -4.92857,-1.5 -2.40242,0 -3.42857,-0.45536 -3.42857,-1.52144 0,-0.83679 -1.14162,-2.0416 -2.53694,-2.67734 -2.07124,-0.94373 -2.83061,-0.86224 -4.13674,0.44389 -2.33583,2.33583 -0.96153,4.75489 2.70131,4.75489 1.9205,0 2.84263,0.40091 2.43588,1.05905 -0.36,0.58248 -1.62405,0.98267 -2.80902,0.88931 -1.18497,-0.0934 -2.71699,-0.11993 -3.40449,-0.059 -1.7888,0.1584 -1.55153,3.11069 0.25,3.11069 0.825,0 1.5,0.42011 1.5,0.93358 0,0.97017 3.15603,1.65951 8.77475,1.91659 2.68394,0.1228 3.45529,-0.32501 4.27543,-2.48215 z m -59.57828,-2.53434 c -0.38714,-2.29148 -1.49527,-5.01576 -2.4625,-6.05397 -1.62351,-1.74263 -1.88348,-1.76277 -3.38401,-0.26225 -2.10388,2.10389 -2.04461,3.2827 0.36365,7.23254 1.22424,2.0079 2.78514,3.25 4.08416,3.25 1.91298,0 2.03912,-0.37572 1.3987,-4.16632 z m 25.28976,3.47924 c -0.95609,-0.25029 -2.75609,-0.25937 -4,-0.0202 -1.24391,0.23919 -0.46166,0.44398 1.73834,0.45508 2.2,0.0111 3.21775,-0.18461 2.26166,-0.4349 z m -34.3654,-2.90316 c 1.35787,-3.53855 -3.11706,-4.69447 -7.17375,-1.85306 -3.36967,2.36021 -2.68694,3.4433 2.1705,3.4433 3.09321,0 4.57357,-0.47052 5.00325,-1.59024 z m -10.7212,-8.67003 c 2.51151,-1.85293 2.82445,-2.48369 1.73649,-3.5 -2.09693,-1.95882 -3.86501,-1.47024 -6.22349,1.71978 -1.20343,1.62773 -2.18806,3.20273 -2.18806,3.5 0,1.33694 3.89055,0.33457 6.67506,-1.71978 z m 91.67428,-1.27176 c -0.30983,-0.80738 -1.15985,-1.46797 -1.88894,-1.46797 -0.72909,0 -1.59838,-0.85936 -1.93174,-1.90969 -0.33336,-1.05034 -1.29798,-2.4839 -2.1436,-3.1857 -1.25141,-1.03858 -1.6923,-1.02552 -2.3695,0.0702 -1.04553,1.69171 0.93422,5.02519 2.98444,5.02519 0.8354,0 2.09187,0.91746 2.79216,2.0388 1.39829,2.23902 3.4589,1.77904 2.55718,-0.57083 z m 11.87508,-4.21797 c 1.95946,-2.23478 5.05239,-8.30652 4.50842,-8.85049 -0.22805,-0.22805 -1.94873,0.61563 -3.82374,1.87485 -2.49956,1.67865 -3.4927,3.14806 -3.72246,5.50756 -0.349,3.58416 0.72662,4.10399 3.03778,1.46808 z m 27.23884,-1.46553 c -0.0311,-2.29678 0.29906,-2.63124 2.1409,-2.16897 2.43665,0.61156 4.09901,-1.06288 2.21265,-2.22872 -2.05506,-1.27009 -6.17854,-1.13379 -9.06681,0.29971 -3.22995,1.60308 -3.23804,1.63903 -1.10212,4.89887 2.26353,3.45457 5.86624,2.95841 5.81538,-0.80089 z m -118.529,-0.78447 c 3.94104,0 3.91262,-1.5107 -0.0671,-3.56871 -3.03138,-1.56759 -3.21356,-1.5394 -5.62328,0.87033 -2.80985,2.80984 -2.29783,5.33282 0.75111,3.70108 1.03042,-0.55148 3.25311,-1.0027 4.93927,-1.0027 z m -8.78426,-1.5 c 0,-0.5225 -0.48375,-1.11125 -1.075,-1.30833 -0.59125,-0.19709 -1.075,0.39166 -1.075,1.30833 0,0.91667 0.48375,1.50542 1.075,1.30833 0.59125,-0.19708 1.075,-0.78583 1.075,-1.30833 z m 77.29721,-3.58541 c -0.32197,-0.52097 -1.01165,-0.68378 -1.53262,-0.3618 -0.52097,0.32197 -0.68378,1.01165 -0.3618,1.53262 0.32197,0.52097 1.01165,0.68378 1.53262,0.3618 0.52097,-0.32197 0.68378,-1.01165 0.3618,-1.53262 z m -67.44721,-1.91459 c 0,-0.55 -0.675,-1 -1.5,-1 -0.825,0 -1.5,0.45 -1.5,1 0,0.55 0.675,1 1.5,1 0.825,0 1.5,-0.45 1.5,-1 z m 119.36163,-2.5 c 0.31658,-0.825 0.18787,-1.5 -0.28603,-1.5 -0.47389,0 -1.12064,0.675 -1.43723,1.5 -0.31658,0.825 -0.18787,1.5 0.28603,1.5 0.47389,0 1.12064,-0.675 1.43723,-1.5 z m -145.86163,-2.5 c 0,-2.16873 -3.90136,-1.86998 -4.32527,0.33121 -0.27348,1.42006 0.17249,1.75684 1.98631,1.5 1.28643,-0.18217 2.33896,-1.00621 2.33896,-1.83121 z m 153.5,-5 c 0,-1.33333 -0.66667,-2 -2,-2 -1.92719,0 -2.7099,1.95677 -1.33333,3.33333 1.37656,1.37657 3.33333,0.59386 3.33333,-1.33333 z m -210,-35.44098 c 0,-0.24254 -0.45,-0.7191 -1,-1.05902 -0.55,-0.33992 -1,-0.14148 -1,0.44098 0,0.58246 0.45,1.05902 1,1.05902 0.55,0 1,-0.19844 1,-0.44098 z m 290.26457,-37.20407 c 0.9704,-0.27442 1.5056,-0.91776 1.1893,-1.42965 -0.3504,-0.56692 -1.3076,-0.53878 -2.4488,0.072 -1.0305,0.55148 -3.2266,1.0027 -4.8803,1.0027 -1.6537,0 -3.3152,0.49918 -3.69231,1.10928 -0.6536,1.05754 4.94281,0.62818 9.83211,-0.75433 z m 10.4861,-7.60495 c 1.6178,-2.8875 3.2338,-6.44569 3.5912,-7.9071 0.3573,-1.4614 0.9486,-3.4864 1.314,-4.5 0.5414,-1.50165 0.175,-1.39698 -1.9785,0.56527 -1.4537,1.32449 -2.8906,3.1884 -3.1933,4.14203 -0.3027,0.95362 -1.3828,1.95156 -2.4003,2.21765 -1.3431,0.35121 -1.9764,1.68242 -2.3111,4.85797 -0.814,7.72083 0.8826,7.93356 4.978,0.62418 z m -161.75067,-2.75 c 0,-0.55 -0.45,-1 -1,-1 -0.55,0 -1,0.45 -1,1 0,0.55 0.45,1 1,1 0.55,0 1,-0.45 1,-1 z m -201.5,-1.52884 c -4.621721,-1.66503 -7.500001,-1.87254 -7.500001,-0.54071 0,1.06407 2.92855,1.75575 8.000001,1.88948 l 3.5,0.0923 -4,-1.44105 z m 360.99997,-3.47115 c 0.34,-0.55 0.1415,-1 -0.4409,-1 -0.5825,0 -1.0591,0.45 -1.0591,1 0,0.55 0.1985,1 0.441,1 0.2426,0 0.7191,-0.45 1.059,-1 z m -10.9548,-6.454 c 0.9015,-1.89971 2.2726,-3.97981 3.0469,-4.62245 0.7744,-0.64264 1.4079,-1.7562 1.4079,-2.47457 0,-0.71837 0.581,-1.90077 1.291,-2.62755 2.6752,-2.73845 4.7083,-6.33623 4.6868,-8.29394 -0.021,-1.8858 -0.1646,-1.85278 -2.0601,0.47251 -1.1208,1.375 -3.3994,4.6375 -5.0635,7.25 -3.5366,5.55201 -5.2611,6.13576 -4.4314,1.5 0.5628,-3.14419 0.5416,-3.1686 -0.6514,-0.75 -0.6782,1.375 -1.7726,2.95 -2.4319,3.5 -1.0666,0.88976 -1.7424,4.74688 -1.4454,8.25 0.2283,2.69365 4.0308,1.21065 5.6511,-2.204 z m -8.54517,-0.98698 c 0,-0.24254 -0.45,-0.7191 -1,-1.05902 -0.55,-0.33992 -1,-0.14148 -1,0.44098 0,0.58246 0.45,1.05902 1,1.05902 0.55,0 1,-0.19844 1,-0.44098 z m -51.27083,-1.16319 c -0.33229,-0.33229 -1.1948,-0.36781 -1.91667,-0.0789 -0.79773,0.31922 -0.56078,0.55618 0.60417,0.60416 1.05416,0.0434 1.64479,-0.19293 1.3125,-0.52522 z m 4,-1 c -0.33229,-0.33229 -1.1948,-0.36781 -1.91667,-0.0789 -0.79773,0.31922 -0.56078,0.55618 0.60417,0.60416 1.05416,0.0434 1.64479,-0.19293 1.3125,-0.52522 z M 99.939609,157.30404 c -0.0565,-3.48399 -0.57366,-6.62703 -1.14919,-6.98454 -0.57553,-0.3575 -1.26227,-1.55001 -1.5261,-2.65001 -0.26383,-1.1 -0.35633,-0.34471 -0.20557,1.67842 0.20995,2.8174 -0.0545,3.55231 -1.12977,3.13969 -0.77213,-0.29629 -1.69061,-1.72658 -2.04107,-3.17841 -0.83957,-3.47809 -4.2609,-8.31004 -5.38996,-7.61225 -0.49031,0.30304 -0.0478,2.44583 0.98341,4.76176 1.03119,2.31593 3.10153,7.26978 4.60076,11.00854 1.97362,4.92178 3.17217,6.71131 4.34306,6.48454 1.29993,-0.25176 1.597031,-1.55591 1.51443,-6.64774 z m 243.602761,4.36545 c 0,-0.825 -0.675,-1.5 -1.5,-1.5 -1.56157,0 -1.98397,1.1827 -0.83333,2.33333 1.15063,1.15064 2.33333,0.72824 2.33333,-0.83333 z m 82.95172,-1.47416 c 1.00113,-0.53579 2.74588,-2.44829 3.87723,-4.25 4.02991,-6.41779 8.453,-12.2368 11.37873,-14.96984 1.63329,-1.52573 2.77999,-3.34374 2.54809,-4.04003 -0.6194,-1.86038 -3.75577,-2.1945 -3.75577,-0.40011 0,0.83187 -1.73079,3.51228 -3.84621,5.95645 -2.11542,2.44417 -4.85385,6.07435 -6.08541,8.06705 -2.56263,4.14642 -4.00805,3.90634 -4.20456,-0.69838 -0.11663,-2.73284 -0.20151,-2.83205 -0.59118,-0.69098 -0.25024,1.375 -1.03574,3.175 -1.74553,4 -2.18418,2.53867 -2.88848,6.15633 -1.38412,7.10953 1.70511,1.08041 1.63053,1.08205 3.80873,-0.0837 z m -290.95172,-3.02584 c -0.825,-0.53316 -1.95,-0.96937 -2.5,-0.96937 -0.55,0 -0.325,0.43621 0.5,0.96937 0.825,0.53316 1.95,0.96937 2.5,0.96937 0.55,0 0.325,-0.43621 -0.5,-0.96937 z m 179.4178,-3.114 c 1.47814,-1.16271 2.48065,-2.32089 2.22779,-2.57374 -0.70761,-0.70762 -6.64559,2.6104 -6.64559,3.71342 0,1.53806 1.50826,1.14896 4.4178,-1.13968 z m -7.4178,0.114 c 0,-0.55 -0.19844,-1 -0.44098,-1 -0.24254,0 -0.7191,0.45 -1.05902,1 -0.33992,0.55 -0.14148,1 0.44098,1 0.58246,0 1.05902,-0.45 1.05902,-1 z m 142.68307,-1.1875 c -0.3192,-0.79773 -0.5561,-0.56078 -0.6041,0.60417 -0.043,1.05416 0.1929,1.64479 0.5252,1.3125 0.3323,-0.3323 0.3678,-1.1948 0.079,-1.91667 z m -223.68307,-0.70551 c 0,-0.49116 -0.675,-1.15203 -1.5,-1.46862 -1.52428,-0.58492 -2.04799,0.4803 -0.83333,1.69496 0.95569,0.9557 2.33333,0.82206 2.33333,-0.22634 z m -107.55824,-2.72301 c 1.2469,-0.47848 1.46016,-1.42742 0.95513,-4.25 -0.35762,-1.99869 -1.20942,-4.30898 -1.8929,-5.13398 -0.71201,-0.85944 -1.53132,-6.18117 -1.9186,-12.46193 -0.37175,-6.02906 -0.85061,-11.13662 -1.06412,-11.35013 -0.21351,-0.21352 -0.83499,-0.11208 -1.38107,0.22541 -0.64719,0.39999 -0.65948,1.74041 -0.0353,3.85013 1.27252,4.30112 2.00682,20.73652 0.92646,20.73652 -0.46744,0 -2.9688,-3.9375 -5.55857,-8.75 -5.55947,-10.331 -5.22573,-9.89706 -6.57455,-8.54824 -0.75791,0.75791 -0.53509,1.99693 0.76666,4.26317 1.00931,1.7571 3.30849,5.74631 5.10929,8.8649 1.8008,3.11859 4.0508,7.35309 5,9.41 1.73235,3.75401 2.69157,4.28614 5.66757,3.14415 z m 208.55824,-0.38398 c 0,-0.55 -0.92656,-1 -2.05902,-1 -1.13246,0 -1.7809,0.45 -1.44098,1 0.33992,0.55 1.26648,1 2.05902,1 0.79254,0 1.44098,-0.45 1.44098,-1 z m -113.5,-3 c -0.33992,-0.55 -1.04148,-1 -1.55902,-1 -0.51754,0 -0.94098,0.45 -0.94098,1 0,0.55 0.70156,1 1.55902,1 0.85746,0 1.2809,-0.45 0.94098,-1 z m 184.03522,-1.82331 c 1.66937,-1.52057 4.12263,-4.31988 5.4517,-6.22069 3.91119,-5.5937 10.25836,-12.956 11.16962,-12.956 0.4639,0 0.84346,0.64844 0.84346,1.44098 0,0.79254 0.49821,1.7489 1.10713,2.12523 0.74205,0.45861 0.88866,-0.004 0.4446,-1.40321 -0.36439,-1.1481 -0.14367,-3.05695 0.49049,-4.24189 0.91944,-1.71798 0.84508,-2.46239 -0.36706,-3.67452 -1.96416,-1.96416 -4.67516,-0.91312 -4.67516,1.81253 0,2.01633 -5.23354,8.99069 -12.89998,17.19088 -4.38296,4.6881 -8.10002,5.11998 -8.10002,0.94113 0,-3.4794 -2.3409,-7.06659 -3.44532,-5.27961 -0.41939,0.67859 0.008,2.05279 0.96864,3.11425 1.77999,1.96686 1.40854,4.97423 -0.61438,4.97423 -2.55556,0 3.29937,4.71706 6.09106,4.9073 0.275,0.0187 1.86585,-1.21003 3.53522,-2.73061 z m 30.8651,-7.67669 c 0.42032,-3.23744 0.32141,-4.47123 -0.28056,-3.5 -0.51135,0.825 -1.22183,3.75 -1.57886,6.5 -0.42031,3.23744 -0.32141,4.47123 0.28057,3.5 0.51134,-0.825 1.22183,-3.75 1.57885,-6.5 z m -8.40032,5.05902 c 0,-0.24254 -0.45,-0.7191 -1,-1.05902 -0.55,-0.33992 -1,-0.14148 -1,0.44098 0,0.58246 0.45,1.05902 1,1.05902 0.55,0 1,-0.19844 1,-0.44098 z M 96.225489,137.98199 c -0.31923,-0.79773 -0.55619,-0.56078 -0.60417,0.60417 -0.0434,1.05416 0.19293,1.64479 0.52522,1.3125 0.33229,-0.3323 0.36782,-1.1948 0.0789,-1.91667 z m 300.316881,0.74652 c 0,-0.79254 -0.41891,-1.69988 -0.9309,-2.01631 -1.18889,-0.73478 -2.38461,1.13777 -1.5691,2.45729 0.91956,1.48787 2.5,1.20909 2.5,-0.44098 z m -249.38848,-1.98903 c 0.30181,-0.7865 -0.21786,-3.0455 -1.15482,-5.02 -1.4498,-3.05521 -1.93285,-3.40081 -3.24276,-2.31999 -1.20855,0.99719 -1.62826,1.00538 -1.95385,0.0381 -0.22807,-0.67752 -2.84665,-4.95252 -5.81907,-9.5 -2.97243,-4.54747 -5.41265,-8.98063 -5.42272,-9.85146 -0.0246,-2.12478 -0.91989,-2.89166 -2.61607,-2.24078 -2.40604,0.92329 -1.42838,7.32411 1.11869,7.32411 0.71882,0 2.99174,3.0375 5.05093,6.75 6.37778,11.49847 9.79698,16.25 11.69351,16.25 0.98858,0 2.04435,-0.6435 2.34616,-1.43001 z m 214.52662,-3.31999 c 0.79647,-0.9625 2.085,-3.02067 2.86342,-4.57371 0.77841,-1.55305 4.56866,-6.41978 8.42278,-10.81498 6.12924,-6.98972 7.15835,-7.78491 8.21135,-6.34486 1.07357,1.4682 1.23961,1.39406 1.53409,-0.68503 0.23851,-1.6839 0.95512,-2.30936 2.58022,-2.25202 3.10363,0.10953 2.76614,-0.69593 -1.40791,-3.3601 -4.26667,-2.72329 -7.25666,-2.22321 -6.62001,1.1072 0.33257,1.7397 -1.72526,4.87892 -8.65411,13.20192 -8.56035,10.28275 -9.28617,10.90263 -12.44718,10.63029 -2.29624,-0.19783 -3.5433,0.19696 -3.94723,1.2496 -1.28327,3.34413 6.90314,4.93711 9.46458,1.84169 z m 36.35558,-8.26112 c 0.90098,-5.21889 2.03741,-9.89532 2.52541,-10.39208 1.2114,-1.23315 -0.72261,-4.64781 -2.29146,-4.04579 -0.7479,0.28699 -1.24057,2.36033 -1.23868,5.21276 0.002,2.60493 -0.38302,8.11123 -0.855,12.23623 -1.17053,10.2301 -0.13743,8.5574 1.85973,-3.01112 z m 20.11045,7.28195 c -1.01652,-1.01651 -1.85525,0.51389 -1.02122,1.86338 0.63003,1.01942 0.86558,1.02021 1.2043,0.004 0.2316,-0.69479 0.14921,-1.53512 -0.18308,-1.86742 z m -322.604171,0.72917 c 0,-0.55 -0.19844,-1 -0.44098,-1 -0.24254,0 -0.7191,0.45 -1.05902,1 -0.33992,0.55 -0.14147,1 0.44099,1 0.58246,0 1.05901,-0.45 1.05901,-1 z m 335.216671,-5.18333 c -1.52752,-1.52752 -2.65464,-0.40039 -1.80743,1.80742 0.50024,1.30358 0.93392,1.43275 1.82354,0.54313 0.88963,-0.88963 0.88579,-1.44865 -0.0161,-2.35055 z m -72.11784,-0.56667 c 0.0544,-0.4125 0.20537,-2.55 0.33557,-4.75 0.56605,-9.56426 1.86069,-19.09036 2.74288,-20.18227 0.73001,-0.90356 1.91219,-0.84462 5.01468,0.25 2.23272,0.78775 4.92947,1.43227 5.99278,1.43227 3.28885,0 1.02341,-1.78903 -3.16054,-2.49591 -2.18093,-0.36846 -5.11745,-1.5762 -6.52561,-2.683862 -2.07023,-1.62844 -2.84385,-1.77858 -4.04177,-0.78439 -0.95269,0.79067 -1.14969,1.62931 -0.5519,2.349592 0.57726,0.69557 0.4005,5.85658 -0.4664,13.61732 -1.68897,15.12034 -1.65379,13.99725 -0.43852,13.99725 0.55,0 1.04448,-0.3375 1.09883,-0.75 z m -6.65439,-4.69444 c -1.09286,-1.66793 -2.0936,-2.3064 -2.68619,-1.71381 -0.59259,0.59259 -0.29556,1.93477 0.79731,3.60269 1.09286,1.66793 2.0936,2.3064 2.68619,1.71381 0.59259,-0.59259 0.29556,-1.93477 -0.79731,-3.60269 z M 144.05255,101.34634 c -0.30679,-0.30679 -1.26601,0.15042 -2.13161,1.01601 -1.23009,1.2301 -1.33409,2.02173 -0.47619,3.62474 0.60369,1.12801 1.09762,3.5927 1.09762,5.47709 0,1.88439 0.3375,5.62647 0.75,8.31574 0.62082,4.04742 0.79891,2.92908 1.03399,-6.4931 0.1562,-6.26047 0.033,-11.63369 -0.27381,-11.94048 z m 36.61491,7.37446 c -0.17973,-7.43137 0.12604,-13.152032 0.767,-14.349672 0.81894,-1.53022 0.71297,-2.28452 -0.45742,-3.25586 -1.264,-1.04902 -1.78276,-0.89382 -3.04741,0.91173 -0.83826,1.19677 -1.93293,1.92328 -2.43261,1.61447 -1.20061,-0.74202 -8.95465,1.36863 -8.95465,2.43746 0,0.81448 8.29092,-0.35317 9.99772,-1.40803 1.60371,-0.99115 1.99151,1.25017 2.44754,14.145612 0.24998,7.06914 0.47707,13.04048 0.50463,13.26965 0.0276,0.22916 0.37051,0.0963 0.7621,-0.29533 0.3916,-0.3916 0.5775,-6.27311 0.4131,-13.07003 z m 203.96869,9.14247 c -0.79171,-0.79171 -1.09378,-0.53223 -1.09378,0.93955 0,2.64375 1.39845,4.04704 1.84378,1.85016 0.18908,-0.93276 -0.14842,-2.18813 -0.75,-2.78971 z m 19.90622,-2.69378 c 0,-0.55 -0.47656,-1 -1.05902,-1 -0.58246,0 -0.7809,0.45 -0.44098,1 0.33992,0.55 0.81648,1 1.05902,1 0.24254,0 0.44098,-0.45 0.44098,-1 z m -247,-6.88226 c 0,-1.13302 -0.35919,-1.0251 -1.4682,0.44113 -0.8075,1.06763 -1.46819,2.61613 -1.46819,3.44113 0,1.13303 0.35919,1.02511 1.46819,-0.44113 0.80751,-1.06762 1.4682,-2.61613 1.4682,-3.44113 z m 234.5,1.88226 c -0.33992,-0.55 -1.15398,-0.99311 -1.80902,-0.98468 -0.71561,0.009 -0.59227,0.40222 0.30902,0.98468 1.92112,1.24153 2.2673,1.24153 1.5,0 z m -239,-10 c 0.78218,-1.265592 -0.54163,-1.265592 -2.5,0 -1.29269,0.8354 -1.26629,0.97149 0.19098,0.98469 0.93004,0.008 1.9691,-0.43469 2.30902,-0.98469 z m 81.16667,291.33333 c -1.24367,-1.24366 -0.67459,-4.33333 0.79815,-4.33333 2.27214,0 3.87914,3.65403 1.93508,4.40004 -1.93834,0.74381 -1.92232,0.7442 -2.73323,-0.0667 z m -80.66667,-4.39235 c 0,-0.58246 0.45,-0.7809 1,-0.44098 0.55,0.33992 1,0.81648 1,1.05902 0,0.24254 -0.45,0.44098 -1,0.44098 -0.55,0 -1,-0.47656 -1,-1.05902 z m 1.18692,-5.67306 c 0.25475,-1.32283 1.69836,-1.71814 7.03276,-1.92582 3.69171,-0.14373 6.97909,0.1705 7.30528,0.69829 0.32619,0.52778 2.02902,0.98813 3.78406,1.023 2.81986,0.056 2.9399,0.16465 1.03208,0.93407 -1.18739,0.47888 -6.05496,0.88515 -10.81681,0.90282 -7.54794,0.028 -8.61683,-0.18126 -8.33737,-1.63236 z m 57.15816,0.18895 c -0.32569,-0.84872 -0.33097,-1.80431 -0.0118,-2.12354 1.00905,-1.00904 3.66667,0.53862 3.66667,2.13529 0,1.99604 -2.88802,1.98677 -3.65492,-0.0118 z m -77.62955,-5.92714 c -5.85399,-1.28055 -8.4835,-2.52973 -5.32502,-2.52973 2.6584,0 10.9951,2.16788 12.05949,3.13596 1.16854,1.0628 0.70461,1.02104 -6.73447,-0.60623 z m 36.32004,-0.46327 c -0.56914,-1.06345 -2.27247,-2.07595 -3.78519,-2.25 -1.96939,-0.2266 -2.84112,-0.95536 -3.06993,-2.56646 -0.4548,-3.20232 -2.09503,-2.79786 -1.86871,0.46081 0.13012,1.87372 -0.35214,2.82276 -1.56174,3.07333 -2.41562,0.50039 -2.16406,-1.50835 1.59079,-12.70258 2.84103,-8.46985 3.8012,-9.97641 7.4785,-11.73418 0.17561,-0.0839 -0.26533,-1.08874 -0.97986,-2.23288 -1.12873,-1.80739 -0.66945,-3.98449 3.50137,-16.59738 l 4.80051,-14.51712 5.91029,0 c 6.83709,0 6.27519,-0.99028 7.94383,14 0.58162,5.225 1.30151,10.86041 1.59976,12.52312 0.52228,2.91171 0.22647,3.19897 -8.02646,7.79446 -7.6978,4.28637 -8.56873,5.06668 -8.56873,7.67719 0,1.68809 -0.70803,3.30208 -1.68951,3.85134 -1.49287,0.83546 -1.54375,1.43197 -0.43717,5.12541 1.26038,4.20678 0.72771,10.02848 -0.91759,10.02848 -0.48695,0 -1.35102,-0.87009 -1.92016,-1.93354 z m 0.96443,-6.551 c 0,-1.55247 -2.81819,-4.0306 -3.64426,-3.20453 -0.32776,0.32776 -0.3123,1.726 0.0344,3.1072 0.42449,1.69132 1.11673,2.32461 2.12009,1.93958 0.8194,-0.31443 1.48981,-1.14344 1.48981,-1.84225 z m -48.53965,0.58747 c -0.66662,-0.69392 -0.77851,-3.68728 -0.31183,-8.34258 0.40031,-3.99319 0.75565,-8.27285 0.78966,-9.51035 0.034,-1.2375 0.39932,-2.24294 0.81182,-2.23431 0.4125,0.009 3.40814,4.07798 6.65698,9.04301 3.99442,6.10445 5.5785,9.35582 4.89245,10.04187 -1.50379,1.50379 -11.60016,2.29203 -12.83908,1.00236 z m 18.50091,-14.279 c -0.6356,-2.37816 -2.0119,-5.12896 -3.05845,-6.11289 -1.04654,-0.98392 -1.90281,-2.23256 -1.90281,-2.77475 0,-0.54218 -1.15521,-1.425 -2.56714,-1.96182 -3.6561,-1.39004 -3.20996,-2.74025 7.34339,-22.22447 5.81716,-10.73999 8.23049,-13.82283 8.21968,-10.5 -0.002,0.6875 -0.45183,7.55 -0.9991,15.25 -1.98504,27.92915 -4.46872,37.92802 -7.03557,28.32393 z m 121.53437,3.16901 c -0.75927,-1.22854 1.99283,-2.42712 3.47279,-1.51245 0.58531,0.36174 0.80531,1.07661 0.48887,1.58861 -0.76324,1.23495 -3.18006,1.18848 -3.96166,-0.0762 z m -2.45667,-7.1815 c -2.61603,-2.80798 -2.56829,-3.41637 0.49053,-6.25119 2.16669,-2.00802 2.8827,-2.18046 4.9922,-1.20225 3.20731,1.48728 3.1144,2.13588 -0.52169,3.642 -3.09164,1.2806 -3.74396,2.42217 -2,3.5 0.55,0.33992 1,1.04148 1,1.55902 0,1.61315 -1.83404,1.03549 -3.96104,-1.24758 z m 14.77354,-5.49455 c 0.72187,-0.28887 1.58438,-0.25335 1.91667,0.0789 0.33229,0.33229 -0.25834,0.56864 -1.3125,0.52522 -1.16495,-0.048 -1.4019,-0.28494 -0.60417,-0.60416 z m -154.5625,-1.97917 c -1.40991,-0.56891 -1.68065,-2.95353 -0.42354,-3.73047 0.45455,-0.28092 1.7938,-0.25781 2.97611,0.0514 1.75509,0.45897 1.96403,0.90898 1.13835,2.45176 -1.03772,1.939 -1.52537,2.10116 -3.69092,1.22734 z m 149.46433,-2.3533 c 0.56285,-2.15238 2.08004,-3.52338 2.94351,-2.65992 0.28862,0.28863 0.22836,1.45869 -0.13392,2.60014 -0.86705,2.73182 -3.52313,2.78833 -2.80959,0.0598 z m -117.32495,-4.23442 c 0.84072,-5.79611 2.57197,-22.75423 2.59329,-25.40217 0.012,-1.489 0.95044,-2.47746 3.04551,-3.20781 3.05299,-1.06428 5.97182,-0.62517 5.97182,0.8984 0,0.45344 -2.26838,7.8303 -5.04084,16.39301 -4.90454,15.14762 -7.865,20.24797 -6.56978,11.31857 z m 122.64242,3.58179 c -0.0517,-1.89979 1.11336,-4.33179 2.07519,-4.33179 1.31057,0 1.09152,1.35528 -0.57519,3.55887 -0.8075,1.06762 -1.4825,1.41543 -1.5,0.77292 z m 7.9682,-2.27603 c 0,-0.51933 1.11078,-2.20683 2.4684,-3.75 2.28671,-2.59924 2.47072,-2.65155 2.5,-0.71075 0.0174,1.15226 -0.79133,2.83976 -1.79714,3.75 -2.05656,1.86116 -3.17126,2.11099 -3.17126,0.71075 z m -21.83948,-7.60281 c -1.55195,-3.40615 -1.53379,-3.45295 1.33948,-3.45295 2.11111,0 2.5,0.46667 2.5,3 0,3.72379 -2.22936,3.98679 -3.83948,0.45295 z m -13.03529,-1.2886 c -1.45608,-2.64194 -1.18833,-3.43942 0.75212,-2.24015 0.72569,0.4485 1.14297,1.66153 0.9273,2.69563 -0.35556,1.70479 -0.51221,1.66231 -1.67942,-0.45548 z m 29.41748,-0.0953 c -0.31644,-0.512 -0.11799,-1.21356 0.44098,-1.55902 0.55897,-0.34546 1.01631,0.0734 1.01631,0.9309 0,1.75653 -0.60006,2.01516 -1.45729,0.62812 z m 10.45729,0.0534 c 0,-0.48265 0.69407,-1.45358 1.54238,-2.15761 1.75925,-1.46005 4.15856,0.092 3.01147,1.94804 -0.80042,1.29511 -4.55385,1.46785 -4.55385,0.20957 z m 65.34508,-2.66557 c -0.98421,-2.5648 0.3934,-2.80774 3.23712,-0.57087 l 2.68752,2.114 -2.66625,0 c -1.48062,0 -2.92956,-0.6862 -3.25839,-1.54313 z m -60.34508,-2.45687 c 0,-0.55 0.42344,-1 0.94098,-1 0.51754,0 1.2191,0.45 1.55902,1 0.33992,0.55 -0.0835,1 -0.94098,1 -0.85746,0 -1.55902,-0.45 -1.55902,-1 z m 59.65112,-5.68221 c -0.93681,-0.93682 -0.80471,-8.31779 0.14888,-8.31779 1.34756,0 3.20181,2.31181 3.1682,3.95 -0.0412,2.00993 -2.47295,5.21191 -3.31708,4.36779 z m -180.96317,-8.4908 c -1.54662,-1.66993 -3.04583,-2.80246 -3.33156,-2.51672 -0.28573,0.28573 -2.0964,-0.13936 -4.02371,-0.94464 -2.85258,-1.19188 -4.18556,-1.24208 -7.16843,-0.26998 -2.01534,0.65679 -3.88925,1.52159 -4.16425,1.92178 -0.275,0.40019 -1.93718,0.51262 -3.69373,0.24985 -2.55954,-0.3829 -3.25455,-1.00296 -3.5,-3.12253 -0.24158,-2.08612 -1.41241,-3.17282 -5.54306,-5.14476 -2.88023,-1.375 -5.4755,-3.11954 -5.76725,-3.87675 -0.72766,-1.88854 1.05142,-3.79411 4.29506,-4.60045 1.48994,-0.37038 7.34962,-2.48466 13.02151,-4.69839 5.67189,-2.21373 11.07189,-3.79201 12,-3.50727 0.92811,0.28473 5.0525,1.48485 9.16531,2.66692 10.77676,3.09738 10.73953,3.04355 8.46967,12.24769 -0.57112,2.31585 -0.2801,2.8814 1.91147,3.71463 2.5989,0.98811 4.41591,4.99081 3.17615,6.99678 -0.35924,0.58126 -2.1648,1.05684 -4.01236,1.05684 -4.12273,0 -6.69683,0.90935 -5.95801,2.10478 1.35204,2.18764 -2.33681,0.46471 -4.87681,-2.27778 z m 168.31205,-15.70456 c 0,-1.16734 0.42344,-2.12244 0.94098,-2.12244 1.73246,0 2.053,1.7601 0.54801,3.00914 -1.23911,1.02837 -1.48899,0.87956 -1.48899,-0.8867 z M 187.57485,274.23018 c -0.73007,-1.36414 -0.71204,-2.1407 0.0608,-2.61833 1.42842,-0.88281 4.3486,2.03368 3.46605,3.46168 -1.01793,1.64705 -2.36661,1.32455 -3.52683,-0.84335 z m 197.09252,1.167 c -1.46102,-0.50758 -5.125,-3.88751 -5.125,-4.72769 0,-0.7758 5.36899,-0.55908 6.57294,0.26531 3.0829,2.11099 1.93822,5.63878 -1.44794,4.46238 z m 13.375,-8.22769 c -0.33992,-0.55 -1.50731,-1 -2.5942,-1 -1.66629,0 -1.80833,-0.31361 -0.9058,-2 1.38873,-2.59487 5.1794,-2.56424 7.55525,0.061 1.5963,1.76389 1.65469,2.19422 0.40499,2.98469 -1.91818,1.2133 -3.69336,1.19509 -4.46024,-0.0457 z m 12.5,-6.41667 c 0,-0.87083 0.7125,-1.58333 1.58333,-1.58333 1.76593,0 1.45839,2.15276 -0.39583,2.77083 -0.65313,0.21771 -1.1875,-0.31666 -1.1875,-1.1875 z m -265,-5.97634 c 0,-5.43557 0.81691,-6.60699 4.60747,-6.60699 1.23554,0 1.24922,0.39682 0.0948,2.75 -0.742,1.5125 -1.1664,3.55912 -0.9431,4.54804 0.41828,1.85249 -1.32803,4.70196 -2.88161,4.70196 -0.48266,0 -0.87756,-2.42686 -0.87756,-5.39301 z m 246,3.89301 c 0,-0.825 0.675,-1.5 1.5,-1.5 0.825,0 1.5,-0.62686 1.5,-1.39301 0,-1.61469 2.68714,-2.92223 3.45435,-1.68085 0.73385,1.18739 -3.31035,6.07386 -5.02693,6.07386 -0.78508,0 -1.42742,-0.675 -1.42742,-1.5 z m -10.25,-0.25739 c -0.9625,-0.21409 -1.75,-0.80626 -1.75,-1.31593 0,-1.2774 2.73189,-1.16951 3.54112,0.13985 0.84335,1.36458 0.39117,1.66149 -1.79112,1.17608 z m 36.25,-1.24261 c 0,-0.55 0.70156,-1 1.55902,-1 0.85746,0 1.2809,0.45 0.94098,1 -0.33992,0.55 -1.04148,1 -1.55902,1 -0.51754,0 -0.94098,-0.45 -0.94098,-1 z m -3.3903,-2.28906 c -1.69615,-1.2466 -1.72183,-1.45394 -0.25,-2.01873 0.90217,-0.34619 1.6403,-1.50143 1.6403,-2.56721 0,-1.45809 0.50497,-1.80571 2.03998,-1.40429 1.79946,0.47057 1.87058,0.7248 0.60323,2.15638 -0.7902,0.8926 -1.59569,2.43296 -1.78997,3.42302 -0.31044,1.58202 -0.58227,1.63179 -2.24354,0.41083 z m -280.1097,-9.71094 c 0.33992,-0.55 1.04148,-1 1.55902,-1 0.51754,0 0.94098,0.45 0.94098,1 0,0.55 -0.70156,1 -1.55902,1 -0.85746,0 -1.2809,-0.45 -0.94098,-1 z m 10,-4 c 0.33992,-0.55 1.37898,-0.99311 2.30902,-0.98469 1.45727,0.0132 1.48367,0.14929 0.19098,0.98469 -1.95837,1.2656 -3.28218,1.2656 -2.5,0 z m -19.90344,-2.84377 c -0.34605,-0.55992 -0.1419,-1.31919 0.45366,-1.68727 1.53748,-0.95021 2.52947,0.35135 1.24598,1.63484 -0.71818,0.71818 -1.27752,0.73543 -1.69964,0.0524 z m 13.90344,-2.15623 c 0.33992,-0.55 1.04148,-1 1.55902,-1 0.51754,0 0.94098,0.45 0.94098,1 0,0.55 -0.70156,1 -1.55902,1 -0.85746,0 -1.2809,-0.45 -0.94098,-1 z m 300,0 c 0.33992,-0.55 0.81648,-1 1.05902,-1 0.24254,0 0.44098,0.45 0.44098,1 0,0.55 -0.47656,1 -1.05902,1 -0.58246,0 -0.7809,-0.45 -0.44098,-1 z m -306.85154,-4.47372 c -0.30861,-0.80423 -0.17792,-1.69906 0.29043,-1.98851 0.46835,-0.28946 1.10404,0.13172 1.41265,0.93595 0.30861,0.80423 0.17792,1.69906 -0.29043,1.98851 -0.46835,0.28946 -1.10404,-0.13172 -1.41265,-0.93595 z m 311.85154,-3.52628 c 0.33997,-0.55 0.81647,-1 1.05907,-1 0.2425,0 0.4409,0.45 0.4409,1 0,0.55 -0.4765,1 -1.059,1 -0.58245,0 -0.78089,-0.45 -0.44097,-1 z m 4.49997,0 c 0,-0.55 0.7016,-1 1.5591,-1 0.8574,0 1.2809,0.45 0.9409,1 -0.3399,0.55 -1.0414,1 -1.559,1 -0.5175,0 -0.941,-0.45 -0.941,-1 z m -321.49997,-6 c 0.33992,-0.55 0.81648,-1 1.05902,-1 0.24254,0 0.44098,0.45 0.44098,1 0,0.55 -0.47656,1 -1.05902,1 -0.58246,0 -0.7809,-0.45 -0.44098,-1 z m 325.99997,-1 c -0.3399,-0.55 -0.1414,-1 0.441,-1 0.5825,0 1.059,0.45 1.059,1 0,0.55 -0.1984,1 -0.4409,1 -0.2426,0 -0.7191,-0.45 -1.0591,-1 z m -342.29997,-6.2 c -1.63321,-1.63321 -1.50819,-2.8 0.3,-2.8 0.83333,0 1.5,0.88889 1.5,2 0,2.33102 -0.18621,2.41379 -1.8,0.8 z m -3.2,-7.35902 c 0,-0.85746 0.45,-1.2809 1,-0.94098 0.55,0.33992 1,1.04148 1,1.55902 0,0.51754 -0.45,0.94098 -1,0.94098 -0.55,0 -1,-0.70156 -1,-1.55902 z m -11.333331,-7.10765 c -0.36667,-0.36666 -0.66667,-1.13166 -0.66667,-1.7 0,-0.6266 0.46577,-0.56756 1.18334,0.15 0.65083,0.65084 0.95083,1.41584 0.66666,1.7 -0.28416,0.28417 -0.81666,0.21667 -1.18333,-0.15 z M 315.31315,122.5992 c -0.84291,-1.37632 1.33557,-27.737352 2.40373,-29.086622 0.62673,-0.79168 1.92762,-0.87854 4.12068,-0.27514 1.76265,0.48497 5.22981,1.01653 7.70481,1.18123 4.50795,0.3 7,1.2271 7,2.60417 0,0.40442 -3.9375,5.546962 -8.75,11.427872 -4.8125,5.88091 -9.46096,11.67933 -10.32992,12.88538 -0.86895,1.20605 -1.83614,1.77445 -2.1493,1.26311 z m -97.69164,-6.17971 c -0.61408,-1.5125 -4.20854,-7.475 -7.98769,-13.25 -7.78922,-11.902862 -8.01605,-14.201962 -1.31252,-13.302822 2.09457,0.28094 5.45585,0.0559 7.4695,-0.5001 2.68407,-0.74111 3.92541,-0.69254 4.65122,0.182 1.45644,1.75492 0.94496,29.620922 -0.5437,29.620922 -0.63816,0 -1.66273,-1.2375 -2.27681,-2.75 z m 90.26259,-1.784 c -5.39904,-8.52793 -12.46848,-22.693322 -11.97161,-23.988122 0.34686,-0.90391 1.64191,-1.01213 4.80241,-0.40132 2.38011,0.45999 6.18487,0.85594 8.45503,0.87989 5.39984,0.057 6.41828,1.40314 5.32877,7.04355 -0.47808,2.475002 -0.88883,6.997502 -0.91278,10.050002 -0.0239,3.0525 -0.44987,5.9775 -0.94649,6.5 -0.49661,0.5225 -1.06233,1.8347 -1.25714,2.916 -0.27903,1.54868 -1.02158,0.91187 -3.49819,-3 z m -44.14173,2.334 c -0.66,-0.66 -1.2,-1.72627 -1.2,-2.3695 0,-0.64322 -3.15,-6.33687 -7,-12.65256 -3.85,-6.315682 -7,-12.185142 -7,-13.043242 0,-1.3287 1.35747,-1.50153 9.14927,-1.16484 5.0321,0.21745 9.4109,0.65698 9.73067,0.97675 1.1504,1.1504 -0.57682,29.453392 -1.79743,29.453392 -0.37538,0 -1.22251,-0.54 -1.88251,-1.2 z m 6.48564,0.49856 c -0.27082,-0.43921 -0.55003,-6.71477 -0.62045,-13.9457 -0.10744,-11.032072 0.13907,-13.414262 1.53232,-14.807512 0.96942,-0.96942 2.33496,-1.38224 3.28143,-0.99201 0.89158,0.3676 4.66987,0.90475 8.3962,1.19368 3.72632,0.28892 6.97155,0.84311 7.2116,1.23154 0.45444,0.73529 -13.70668,20.421302 -15.47719,21.515532 -0.55525,0.34317 -1.00955,1.44229 -1.00955,2.44248 0,2.02722 -2.54533,4.60913 -3.31436,3.36199 z m 39.34635,-28.257622 c -0.8074,-0.51064 -4.28218,-1.22981 -7.72172,-1.59816 -3.43955,-0.36834 -6.7637,-1.2842 -7.387,-2.03523 -0.8335,-1.00431 -1.6403,-1.09417 -3.05002,-0.33971 -2.35633,1.26107 -17.90022,0.98721 -19.62325,-0.34572 -0.6875,-0.53185 -1.25,-1.56072 -1.25,-2.28638 0,-1.01561 1.66917,-1.20811 7.25,-0.83611 13.92007,0.92785 36.25718,3.60801 37.15762,4.45842 1.04664,0.98849 -1.05021,3.95013 -2.78006,3.92664 -0.62016,-0.008 -1.78816,-0.43311 -2.59557,-0.94375 z"
     id="path2818"
     inkscape:export-filename="/home/jc/Documents/qf-astro/Ressources/Illustrations/Wikipedia/radiotelescope.png"
     inkscape:export-xdpi="100"
     inkscape:export-ydpi="100" />
</svg>
